<?xml version="1.0" encoding="UTF-8" standalone="no"?>
<svg
   xmlns:dc="http://purl.org/dc/elements/1.1/"
   xmlns:cc="http://creativecommons.org/ns#"
   xmlns:rdf="http://www.w3.org/1999/02/22-rdf-syntax-ns#"
   xmlns:svg="http://www.w3.org/2000/svg"
   xmlns="http://www.w3.org/2000/svg"
   id="svg7725"
   version="1.1"
   viewBox="0 0 7.5238061 43.855492"
   height="43.855492mm"
   width="7.5238061mm">
  <defs
     id="defs7719" />
  <metadata
     id="metadata7722">
    <rdf:RDF>
      <cc:Work
         rdf:about="">
        <dc:format>image/svg+xml</dc:format>
        <dc:type
           rdf:resource="http://purl.org/dc/dcmitype/StillImage" />
        <dc:title></dc:title>
      </cc:Work>
    </rdf:RDF>
  </metadata>
  <g
     transform="translate(-90.732145,-155.63177)"
     id="layer1">
    <g
       transform="matrix(2.1066059,0,0,2.1066059,-202.57327,-103.51768)"
       id="text10470"
       style="font-variant:normal;font-weight:normal;font-size:2.1777699px;font-family:'DejaVu Sans';-inkscape-font-specification:DejaVuSans;writing-mode:lr-tb;display:inline;fill:#000000;fill-opacity:1;fill-rule:nonzero;stroke:none;stroke-width:0.15555498"
       aria-label="ON OFF">
      <path
         id="path15392"
         style="font-style:normal;font-variant:normal;font-weight:600;font-stretch:normal;font-family:Titillium;-inkscape-font-specification:'Titillium Semi-Bold';stroke-width:0.15555498"
         d="m 140.30311,124.34597 c -0.28964,0 -0.35715,-0.17858 -0.35715,-0.55098 0,-0.37022 0.0697,-0.56622 0.35715,-0.56622 0.28747,0 0.35498,0.196 0.35498,0.56622 0,0.37894 -0.0653,0.55098 -0.35498,0.55098 z m 0,0.21124 c 0.46605,0 0.60542,-0.25479 0.60542,-0.76222 0,-0.50088 -0.13937,-0.77746 -0.60542,-0.77746 -0.46604,0 -0.60759,0.27876 -0.60759,0.77746 0,0.50307 0.13937,0.76222 0.60759,0.76222 z" />
      <path
         id="path15394"
         style="font-style:normal;font-variant:normal;font-weight:600;font-stretch:normal;font-family:Titillium;-inkscape-font-specification:'Titillium Semi-Bold';stroke-width:0.15555498"
         d="m 141.18947,124.53326 h 0.24173 v -1.28053 h 0.0305 l 0.46387,1.28053 h 0.41377 v -1.49177 h -0.24173 v 1.27835 h -0.0327 l -0.45297,-1.27835 h -0.42249 z" />
      <path
         id="path15396"
         style="font-style:normal;font-variant:normal;font-weight:600;font-stretch:normal;font-family:Titillium;-inkscape-font-specification:'Titillium Semi-Bold';stroke-width:0.15555498"
         d="m 139.83887,143.62436 c -0.28965,0 -0.35716,-0.17857 -0.35716,-0.55097 0,-0.37022 0.0697,-0.56622 0.35716,-0.56622 0.28746,0 0.35497,0.196 0.35497,0.56622 0,0.37893 -0.0653,0.55097 -0.35497,0.55097 z m 0,0.21125 c 0.46604,0 0.60542,-0.2548 0.60542,-0.76222 0,-0.50089 -0.13938,-0.77747 -0.60542,-0.77747 -0.46605,0 -0.6076,0.27876 -0.6076,0.77747 0,0.50306 0.13938,0.76222 0.6076,0.76222 z" />
      <path
         id="path15398"
         style="font-style:normal;font-variant:normal;font-weight:600;font-stretch:normal;font-family:Titillium;-inkscape-font-specification:'Titillium Semi-Bold';stroke-width:0.15555498"
         d="m 140.72522,143.81165 h 0.24173 v -0.56622 h 0.5684 v -0.21124 h -0.5684 v -0.50307 h 0.68382 v -0.21124 h -0.92555 z" />
      <path
         id="path15400"
         style="font-style:normal;font-variant:normal;font-weight:600;font-stretch:normal;font-family:Titillium;-inkscape-font-specification:'Titillium Semi-Bold';stroke-width:0.15555498"
         d="m 141.87724,143.81165 h 0.24174 v -0.56622 h 0.56839 v -0.21124 h -0.56839 v -0.50307 h 0.68382 v -0.21124 h -0.92556 z" />
    </g>
  </g>
</svg>
