<?xml version="1.0" encoding="UTF-8" standalone="no"?>
<!-- Created with Inkscape (http://www.inkscape.org/) -->

<svg
   xmlns:dc="http://purl.org/dc/elements/1.1/"
   xmlns:cc="http://creativecommons.org/ns#"
   xmlns:rdf="http://www.w3.org/1999/02/22-rdf-syntax-ns#"
   xmlns:svg="http://www.w3.org/2000/svg"
   xmlns="http://www.w3.org/2000/svg"
   xmlns:sodipodi="http://sodipodi.sourceforge.net/DTD/sodipodi-0.dtd"
   xmlns:inkscape="http://www.inkscape.org/namespaces/inkscape"
   width="60mm"
   height="41.949001mm"
   viewBox="0 0 60 41.949001"
   version="1.1"
   id="svg4932"
   inkscape:version="0.92.1 r15371"
   sodipodi:docname="TAZWorkhorse_Logo.svg">
  <defs
     id="defs4926">
    <clipPath
       id="clipPath18"
       clipPathUnits="userSpaceOnUse">
      <path
         inkscape:connector-curvature="0"
         id="path20"
         d="m 0,10.0195 h 2950 v 3041.99 H 0 Z" />
    </clipPath>
    <clipPath
       id="clipPath68"
       clipPathUnits="userSpaceOnUse">
      <path
         inkscape:connector-curvature="0"
         id="path70"
         d="M 0,3052.01 H 2950 V 10.0195 H 0 Z" />
    </clipPath>
    <clipPath
       id="clipPath1760"
       clipPathUnits="userSpaceOnUse">
      <path
         inkscape:connector-curvature="0"
         id="path1758"
         d="m 45.746,1068.789 h 76.039 V 966.742 H 45.746 Z" />
    </clipPath>
    <clipPath
       id="clipPath1770"
       clipPathUnits="userSpaceOnUse">
      <path
         inkscape:connector-curvature="0"
         id="path1768"
         d="m 45,966 h 72 v 103 H 45 Z" />
    </clipPath>
    <clipPath
       id="clipPath1710"
       clipPathUnits="userSpaceOnUse">
      <path
         inkscape:connector-curvature="0"
         id="path1708"
         d="m 216.895,335.496 h 25.074 v -21.008 h -25.074 z" />
    </clipPath>
    <clipPath
       id="clipPath1720"
       clipPathUnits="userSpaceOnUse">
      <path
         inkscape:connector-curvature="0"
         id="path1718"
         d="m 216,314 h 26 v 22 h -26 z" />
    </clipPath>
    <clipPath
       clipPathUnits="userSpaceOnUse"
       id="clipPath1546">
      <path
         d="m 850.168,1031.672 h 166.516 V 989.063 H 850.168 Z"
         id="path1544"
         inkscape:connector-curvature="0" />
    </clipPath>
    <clipPath
       clipPathUnits="userSpaceOnUse"
       id="clipPath1556">
      <path
         d="m 850,1009 h 167 v 23 H 850 Z"
         id="path1554"
         inkscape:connector-curvature="0" />
    </clipPath>
    <clipPath
       clipPathUnits="userSpaceOnUse"
       id="clipPath1566">
      <path
         d="m 850.168,1031.672 h 166.516 v -22.367 H 850.168 Z"
         id="path1564"
         inkscape:connector-curvature="0" />
    </clipPath>
    <clipPath
       clipPathUnits="userSpaceOnUse"
       id="clipPath1576">
      <path
         d="m 852,1009 h 165 v 23 H 852 Z"
         id="path1574"
         inkscape:connector-curvature="0" />
    </clipPath>
  </defs>
  <sodipodi:namedview
     id="base"
     pagecolor="#ffffff"
     bordercolor="#666666"
     borderopacity="1.0"
     inkscape:pageopacity="0.0"
     inkscape:pageshadow="2"
     inkscape:zoom="0.98994949"
     inkscape:cx="45.982092"
     inkscape:cy="402.95007"
     inkscape:document-units="mm"
     inkscape:current-layer="layer1"
     showgrid="false"
     inkscape:window-width="1920"
     inkscape:window-height="971"
     inkscape:window-x="0"
     inkscape:window-y="31"
     inkscape:window-maximized="1" />
  <metadata
     id="metadata4929">
    <rdf:RDF>
      <cc:Work
         rdf:about="">
        <dc:format>image/svg+xml</dc:format>
        <dc:type
           rdf:resource="http://purl.org/dc/dcmitype/StillImage" />
        <dc:title></dc:title>
      </cc:Work>
    </rdf:RDF>
  </metadata>
  <g
     inkscape:label="Layer 1"
     inkscape:groupmode="layer"
     id="layer1"
     transform="translate(0,-255.051)">
    <g
       id="g5076"
       transform="translate(-334.98332,70.905665)">
      <text
         id="text6596"
         style="font-variant:normal;font-size:29.98299408px;font-family:Outage;-inkscape-font-specification:Outage-Cut;writing-mode:lr-tb;display:inline;fill:#000000;fill-opacity:1;fill-rule:nonzero;stroke:none;stroke-width:0.36388919"
         transform="scale(1.0023183,0.99768705)"
         x="333.91629"
         y="216.38327">
        <tspan
           id="tspan6594"
           sodipodi:role="line"
           y="216.38327"
           x="333.91629 352.35583 374.78311"
           style="stroke-width:0.36388919">TAZ</tspan>
      </text>
      <g
         style="display:inline"
         transform="matrix(0.36473277,0,0,-0.36473277,24.174102,560.42957)"
         id="g6636">
        <g
           id="g6634"
           clip-path="url(#clipPath1546)">
          <g
             id="g6632">
            <g
               id="g6630">
              <g
                 id="g6628"
                 clip-path="url(#clipPath1556)">
                <g
                   id="g6598" />
                <g
                   id="g6626">
                  <g
                     id="g6624"
                     clip-path="url(#clipPath1566)">
                    <g
                       id="g6622">
                      <g
                         id="g6620">
                        <g
                           id="g6618"
                           clip-path="url(#clipPath1576)">
                          <g
                             id="g6616">
                            <path
                               d="m 866.164,1015.215 c 0.164,0 0.297,-0.059 0.402,-0.172 0.102,-0.117 0.157,-0.258 0.157,-0.422 v -4.101 c 0,-0.165 -0.055,-0.301 -0.157,-0.418 -0.105,-0.11 -0.238,-0.168 -0.402,-0.168 h -13.418 c -0.398,0 -0.59,0.191 -0.59,0.586 v 20.562 c 0,0.391 0.192,0.59 0.59,0.59 h 4.289 c 0.391,0 0.586,-0.199 0.586,-0.59 v -15.312 c 0,-0.165 0.059,-0.301 0.168,-0.403 0.117,-0.105 0.254,-0.152 0.426,-0.152 z"
                               style="fill:#000000;fill-opacity:1;fill-rule:nonzero;stroke:none"
                               id="path6600"
                               inkscape:connector-curvature="0" />
                            <path
                               d="m 890.93,1031.504 c 0.117,-0.117 0.172,-0.258 0.172,-0.422 v -17.047 h -0.032 c 0,-0.172 -0.019,-0.347 -0.062,-0.535 -0.039,-0.184 -0.094,-0.34 -0.156,-0.461 L 888,1010.18 c -0.148,-0.082 -0.328,-0.145 -0.547,-0.184 -0.219,-0.043 -0.406,-0.062 -0.578,-0.062 h -9.844 c -0.164,0 -0.355,0.019 -0.558,0.062 -0.207,0.039 -0.383,0.102 -0.528,0.184 l -2.859,2.859 c -0.082,0.141 -0.141,0.32 -0.184,0.527 -0.043,0.207 -0.062,0.391 -0.062,0.559 v 16.957 c 0,0.164 0.055,0.305 0.172,0.422 0.113,0.109 0.254,0.168 0.418,0.168 h 4.285 c 0.168,0 0.308,-0.059 0.418,-0.168 0.117,-0.117 0.172,-0.258 0.172,-0.422 v -15.312 c 0,-0.165 0.058,-0.305 0.175,-0.415 0.11,-0.117 0.25,-0.175 0.418,-0.175 h 6.149 c 0.164,0 0.301,0.058 0.402,0.175 0.102,0.11 0.156,0.25 0.156,0.415 v 15.312 c 0,0.164 0.059,0.305 0.168,0.422 0.118,0.109 0.254,0.168 0.426,0.168 h 4.313 c 0.164,0 0.304,-0.059 0.418,-0.168"
                               style="fill:#000000;fill-opacity:1;fill-rule:nonzero;stroke:none"
                               id="path6602"
                               inkscape:connector-curvature="0" />
                            <path
                               d="m 913.121,1015.215 c 0.168,0 0.305,-0.059 0.406,-0.172 0.102,-0.117 0.153,-0.258 0.153,-0.422 v -4.101 c 0,-0.165 -0.051,-0.301 -0.153,-0.418 -0.101,-0.11 -0.238,-0.168 -0.406,-0.168 h -13.414 c -0.395,0 -0.594,0.191 -0.594,0.586 v 20.562 c 0,0.391 0.199,0.59 0.594,0.59 h 4.285 c 0.395,0 0.586,-0.199 0.586,-0.59 v -15.312 c 0,-0.165 0.059,-0.301 0.176,-0.403 0.113,-0.105 0.254,-0.152 0.418,-0.152 z"
                               style="fill:#000000;fill-opacity:1;fill-rule:nonzero;stroke:none"
                               id="path6604"
                               inkscape:connector-curvature="0" />
                            <path
                               d="m 936.383,1027.168 c 0,-0.164 -0.039,-0.34 -0.121,-0.527 -0.082,-0.184 -0.18,-0.34 -0.282,-0.469 l -10.089,-11.363 h 9.906 c 0.164,0 0.305,-0.055 0.418,-0.172 0.113,-0.114 0.168,-0.254 0.168,-0.418 v -3.699 c 0,-0.165 -0.055,-0.301 -0.168,-0.418 -0.113,-0.11 -0.254,-0.168 -0.418,-0.168 h -15.438 c -0.394,0 -0.589,0.195 -0.589,0.586 v 3.882 c 0,0.164 0.035,0.352 0.109,0.543 0.07,0.2 0.16,0.36 0.262,0.489 l 10.312,11.359 h -9.91 c -0.164,0 -0.305,0.059 -0.418,0.176 -0.113,0.113 -0.168,0.254 -0.168,0.418 v 3.695 c 0,0.168 0.055,0.305 0.168,0.422 0.113,0.109 0.254,0.168 0.418,0.168 h 15.254 c 0.164,0 0.305,-0.059 0.418,-0.168 0.113,-0.117 0.168,-0.254 0.168,-0.422 z"
                               style="fill:#000000;fill-opacity:1;fill-rule:nonzero;stroke:none"
                               id="path6606"
                               inkscape:connector-curvature="0" />
                            <path
                               d="m 949.367,1014.684 h 8.356 v 4.222 h -8.356 z m 0,8.382 h 8.356 v 3.883 h -8.356 z m 13.078,5.5 c 0.063,-0.144 0.117,-0.324 0.172,-0.543 0.047,-0.218 0.074,-0.41 0.074,-0.574 V 1024 c 0,-0.168 -0.039,-0.344 -0.109,-0.539 -0.07,-0.199 -0.16,-0.359 -0.262,-0.484 l -1.336,-1.711 c -0.101,-0.121 -0.152,-0.278 -0.14,-0.465 0.008,-0.184 0.066,-0.332 0.172,-0.434 l 1.273,-1.555 c 0.102,-0.124 0.195,-0.285 0.277,-0.476 0.082,-0.203 0.125,-0.379 0.125,-0.547 v -3.664 c 0,-0.168 -0.027,-0.352 -0.074,-0.559 -0.055,-0.207 -0.109,-0.386 -0.172,-0.527 l -2.859,-2.859 c -0.145,-0.082 -0.324,-0.145 -0.543,-0.184 -0.219,-0.043 -0.406,-0.062 -0.574,-0.062 H 945.02 c -0.395,0 -0.594,0.195 -0.594,0.586 v 20.562 c 0,0.164 0.058,0.305 0.176,0.422 0.109,0.109 0.253,0.168 0.418,0.168 h 13.449 c 0.168,0 0.355,-0.027 0.574,-0.074 0.219,-0.055 0.398,-0.11 0.543,-0.172 z"
                               style="fill:#000000;fill-opacity:1;fill-rule:nonzero;stroke:none"
                               id="path6608"
                               inkscape:connector-curvature="0" />
                            <path
                               d="m 983.312,1026.391 h -7.296 v -11.211 h 7.296 z m 5.25,2.175 c 0.067,-0.144 0.118,-0.32 0.172,-0.523 0.055,-0.211 0.078,-0.398 0.078,-0.563 v -13.355 c 0,-0.168 -0.023,-0.352 -0.078,-0.559 -0.054,-0.207 -0.105,-0.386 -0.172,-0.527 l -2.855,-2.859 c -0.148,-0.082 -0.328,-0.145 -0.547,-0.184 -0.219,-0.043 -0.406,-0.062 -0.57,-0.062 h -9.852 c -0.164,0 -0.347,0.019 -0.554,0.062 -0.207,0.039 -0.383,0.102 -0.528,0.184 l -2.855,2.859 c -0.086,0.141 -0.149,0.32 -0.192,0.527 -0.039,0.207 -0.058,0.391 -0.058,0.559 v 13.355 c 0,0.165 0.019,0.352 0.058,0.563 0.043,0.203 0.106,0.379 0.192,0.523 l 2.855,2.86 c 0.145,0.062 0.321,0.117 0.528,0.172 0.207,0.047 0.39,0.074 0.554,0.074 h 9.852 c 0.164,0 0.351,-0.027 0.57,-0.074 0.219,-0.055 0.399,-0.11 0.547,-0.172 z"
                               style="fill:#000000;fill-opacity:1;fill-rule:nonzero;stroke:none"
                               id="path6610"
                               inkscape:connector-curvature="0" />
                            <path
                               d="m 1011.703,1026.984 c 0,-0.164 -0.055,-0.304 -0.172,-0.422 -0.113,-0.113 -0.254,-0.171 -0.418,-0.171 h -4.414 c -0.164,0 -0.304,-0.051 -0.418,-0.153 -0.113,-0.105 -0.168,-0.238 -0.168,-0.402 v -15.316 c 0,-0.165 -0.054,-0.301 -0.156,-0.418 -0.105,-0.11 -0.238,-0.168 -0.406,-0.168 h -4.317 c -0.164,0 -0.304,0.058 -0.418,0.168 -0.117,0.117 -0.168,0.253 -0.168,0.418 v 15.316 c 0,0.164 -0.054,0.297 -0.156,0.402 -0.109,0.102 -0.242,0.153 -0.402,0.153 h -4.414 c -0.172,0 -0.305,0.058 -0.418,0.171 -0.117,0.118 -0.172,0.258 -0.172,0.422 v 4.098 c 0,0.391 0.199,0.59 0.59,0.59 h 15.437 c 0.164,0 0.305,-0.059 0.418,-0.168 0.117,-0.117 0.172,-0.258 0.172,-0.422 z"
                               style="fill:#000000;fill-opacity:1;fill-rule:nonzero;stroke:none"
                               id="path6612"
                               inkscape:connector-curvature="0" />
                            <path
                               d="m 1012.82,1013.992 c 0.246,0 0.446,0.031 0.602,0.102 0.152,0.07 0.23,0.234 0.23,0.492 0,0.117 -0.023,0.207 -0.078,0.277 -0.054,0.067 -0.121,0.117 -0.211,0.157 -0.086,0.039 -0.183,0.066 -0.285,0.078 -0.105,0.011 -0.207,0.019 -0.305,0.019 h -0.711 v -1.125 z m 0,1.789 c 0.543,0 0.957,-0.097 1.25,-0.281 0.285,-0.195 0.434,-0.527 0.434,-0.984 0,-0.204 -0.031,-0.371 -0.09,-0.508 -0.059,-0.141 -0.137,-0.258 -0.238,-0.348 -0.106,-0.082 -0.223,-0.156 -0.36,-0.199 -0.132,-0.047 -0.281,-0.078 -0.437,-0.09 l 1.144,-1.879 h -0.894 l -1.039,1.832 h -0.532 v -1.832 h -0.847 v 4.289 z m -2.75,-3.355 c 0.149,-0.371 0.356,-0.688 0.617,-0.961 0.258,-0.262 0.563,-0.477 0.918,-0.625 0.348,-0.149 0.723,-0.227 1.125,-0.227 0.395,0 0.77,0.078 1.121,0.227 0.356,0.148 0.661,0.363 0.918,0.625 0.258,0.273 0.465,0.59 0.622,0.961 0.148,0.367 0.226,0.769 0.226,1.207 0,0.437 -0.078,0.836 -0.226,1.203 -0.157,0.363 -0.364,0.684 -0.622,0.945 -0.257,0.266 -0.562,0.473 -0.918,0.625 -0.351,0.149 -0.726,0.223 -1.121,0.223 -0.402,0 -0.777,-0.074 -1.125,-0.223 -0.355,-0.152 -0.66,-0.359 -0.918,-0.625 -0.261,-0.261 -0.468,-0.582 -0.617,-0.945 -0.148,-0.367 -0.226,-0.766 -0.226,-1.203 0,-0.438 0.078,-0.84 0.226,-1.207 m -0.941,2.781 c 0.211,0.473 0.504,0.871 0.863,1.203 0.359,0.332 0.777,0.59 1.25,0.77 0.473,0.183 0.973,0.273 1.488,0.273 0.52,0 1.016,-0.09 1.489,-0.273 0.48,-0.18 0.894,-0.438 1.257,-0.77 0.36,-0.332 0.645,-0.73 0.864,-1.203 0.215,-0.465 0.32,-0.996 0.32,-1.574 0,-0.586 -0.105,-1.11 -0.32,-1.582 -0.219,-0.473 -0.504,-0.875 -0.864,-1.211 -0.363,-0.336 -0.777,-0.59 -1.257,-0.766 -0.473,-0.179 -0.969,-0.265 -1.489,-0.265 -0.515,0 -1.015,0.086 -1.488,0.265 -0.473,0.176 -0.891,0.43 -1.25,0.766 -0.359,0.336 -0.652,0.738 -0.863,1.211 -0.215,0.472 -0.328,0.996 -0.328,1.582 0,0.578 0.113,1.109 0.328,1.574"
                               style="fill:#000000;fill-opacity:1;fill-rule:nonzero;stroke:none"
                               id="path6614"
                               inkscape:connector-curvature="0" />
                          </g>
                        </g>
                      </g>
                    </g>
                  </g>
                </g>
              </g>
            </g>
          </g>
        </g>
      </g>
      <text
         xml:space="preserve"
         style="font-style:normal;font-variant:normal;font-weight:normal;font-stretch:normal;font-size:10.24677944px;line-height:1;font-family:sans-serif;font-variant-ligatures:normal;font-variant-position:normal;font-variant-caps:normal;font-variant-numeric:normal;font-variant-alternates:normal;font-feature-settings:normal;text-indent:0;text-align:start;text-decoration:none;text-decoration-line:none;text-decoration-style:solid;text-decoration-color:#000000;letter-spacing:0px;word-spacing:0px;text-transform:none;writing-mode:lr-tb;direction:ltr;text-orientation:mixed;dominant-baseline:auto;baseline-shift:baseline;text-anchor:start;white-space:normal;shape-padding:0;display:inline;opacity:1;vector-effect:none;fill:#000000;fill-opacity:1;stroke:none;stroke-width:0.25616944;stroke-linecap:butt;stroke-linejoin:miter;stroke-miterlimit:4;stroke-dasharray:none;stroke-dashoffset:0;stroke-opacity:1"
         x="335.55441"
         y="225.99187"
         id="text6640"><tspan
           sodipodi:role="line"
           id="tspan6638"
           x="335.55441"
           y="225.99187"
           style="font-style:normal;font-variant:normal;font-weight:300;font-stretch:normal;font-family:Titillium;-inkscape-font-specification:'Titillium Light';stroke-width:0.25616944">WORKHORSE</tspan></text>
    </g>
  </g>
</svg>
