<?xml version="1.0" encoding="UTF-8" standalone="no"?>
<!-- Created with Inkscape (http://www.inkscape.org/) -->

<svg
   xmlns:dc="http://purl.org/dc/elements/1.1/"
   xmlns:cc="http://creativecommons.org/ns#"
   xmlns:rdf="http://www.w3.org/1999/02/22-rdf-syntax-ns#"
   xmlns:svg="http://www.w3.org/2000/svg"
   xmlns="http://www.w3.org/2000/svg"
   xmlns:sodipodi="http://sodipodi.sourceforge.net/DTD/sodipodi-0.dtd"
   xmlns:inkscape="http://www.inkscape.org/namespaces/inkscape"
   width="70mm"
   height="70.696999mm"
   viewBox="0 0 70 70.696999"
   version="1.1"
   id="svg4932"
   inkscape:version="0.92.1 r15371"
   sodipodi:docname="LulzBot_Logo.svg">
  <defs
     id="defs4926">
    <clipPath
       id="clipPath18"
       clipPathUnits="userSpaceOnUse">
      <path
         inkscape:connector-curvature="0"
         id="path20"
         d="m 0,10.0195 h 2950 v 3041.99 H 0 Z" />
    </clipPath>
    <clipPath
       id="clipPath68"
       clipPathUnits="userSpaceOnUse">
      <path
         inkscape:connector-curvature="0"
         id="path70"
         d="M 0,3052.01 H 2950 V 10.0195 H 0 Z" />
    </clipPath>
  </defs>
  <sodipodi:namedview
     id="base"
     pagecolor="#ffffff"
     bordercolor="#666666"
     borderopacity="1.0"
     inkscape:pageopacity="0.0"
     inkscape:pageshadow="2"
     inkscape:zoom="0.49497475"
     inkscape:cx="89.453671"
     inkscape:cy="477.63029"
     inkscape:document-units="mm"
     inkscape:current-layer="layer1"
     showgrid="false"
     inkscape:window-width="1920"
     inkscape:window-height="971"
     inkscape:window-x="0"
     inkscape:window-y="31"
     inkscape:window-maximized="1" />
  <metadata
     id="metadata4929">
    <rdf:RDF>
      <cc:Work
         rdf:about="">
        <dc:format>image/svg+xml</dc:format>
        <dc:type
           rdf:resource="http://purl.org/dc/dcmitype/StillImage" />
        <dc:title></dc:title>
      </cc:Work>
    </rdf:RDF>
  </metadata>
  <g
     inkscape:label="Layer 1"
     inkscape:groupmode="layer"
     id="layer1"
     transform="translate(0,-226.303)">
    <g
       transform="matrix(0.27046555,0,0,-0.27046555,-4.8345717,304.02829)"
       inkscape:label="ink_ext_XXXXXX"
       id="g10"
       style="stroke-width:1.22281444">
      <g
         style="fill:#ccff00;fill-opacity:0;stroke-width:1.22281444"
         transform="scale(0.1)"
         id="g12">
        <g
           style="fill:#ccff00;fill-opacity:0;stroke-width:1.22281444"
           id="g14">
          <g
             style="fill:#ccff00;fill-opacity:0;stroke-width:1.22281444"
             clip-path="url(#clipPath18)"
             id="g16">
            <path
               id="path22"
               transform="matrix(8,0,0,-8,0,3060)"
               d="M 178.47656,23.279297 22.34375,293.62695 h 312.25586 z m 0,15.365234 36.85156,63.808589 h -73.70117 z m -41.36718,71.630859 h 82.74023 l 59.91601,103.77149 -41.4414,71.75195 H 118.18359 L 76.962891,214.41602 Z m 147.09374,111.45117 37.00782,64.07227 h -74.00782 z m -211.677729,0.375 36.785159,63.69727 H 35.736328 Z"
               style="fill:#000000;fill-opacity:1;fill-rule:nonzero;stroke:none;stroke-width:1.22281444"
               inkscape:connector-curvature="0" />
            <path
               inkscape:connector-curvature="0"
               id="path24"
               style="fill:#000000;fill-opacity:1;fill-rule:nonzero;stroke:none;stroke-width:1.22281444"
               d="m 398.09,342.602 c 2.57,0 4.68,-0.903 6.32,-2.704 1.61,-1.796 2.391,-3.976 2.391,-6.558 v -64.18 c 0,-2.621 -0.781,-4.808 -2.391,-6.601 -1.64,-1.797 -3.75,-2.7 -6.32,-2.7 H 188.012 c -6.211,0 -9.262,3.129 -9.262,9.301 v 321.91 c 0,6.129 3.051,9.258 9.262,9.258 h 67.109 c 6.129,0 9.219,-3.129 9.219,-9.258 V 351.309 c 0,-2.579 0.89,-4.649 2.691,-6.289 1.758,-1.641 3.949,-2.418 6.559,-2.418 h 124.5" />
            <path
               inkscape:connector-curvature="0"
               id="path26"
               style="fill:#000000;fill-opacity:1;fill-rule:nonzero;stroke:none;stroke-width:1.22281444"
               d="m 785.898,597.629 c 1.762,-1.789 2.653,-3.938 2.653,-6.559 V 324.078 h -0.461 c 0,-2.578 -0.32,-5.348 -0.981,-8.277 -0.66,-2.891 -1.449,-5.313 -2.418,-7.313 l -44.73,-44.718 c -2.262,-1.25 -5.121,-2.27 -8.512,-2.891 -3.398,-0.668 -6.41,-1.02 -9.027,-1.02 H 568.281 c -2.621,0 -5.511,0.352 -8.75,1.02 -3.242,0.621 -6.011,1.641 -8.281,2.891 l -44.73,44.718 c -1.29,2.313 -2.301,5.043 -2.93,8.321 -0.66,3.211 -0.969,6.14 -0.969,8.75 V 591.07 c 0,2.621 0.899,4.77 2.688,6.559 1.761,1.801 3.953,2.699 6.57,2.699 h 67.101 c 2.579,0 4.77,-0.898 6.571,-2.699 1.789,-1.789 2.687,-3.938 2.687,-6.559 V 351.309 c 0,-2.579 0.864,-4.809 2.66,-6.528 1.762,-1.793 3.981,-2.691 6.563,-2.691 h 96.289 c 2.578,0 4.73,0.898 6.328,2.691 1.602,1.719 2.422,3.949 2.422,6.528 V 591.07 c 0,2.621 0.898,4.77 2.66,6.559 1.789,1.801 3.981,2.699 6.602,2.699 h 67.578 c 2.57,0 4.801,-0.898 6.558,-2.699" />
            <path
               inkscape:connector-curvature="0"
               id="path28"
               style="fill:#000000;fill-opacity:1;fill-rule:nonzero;stroke:none;stroke-width:1.22281444"
               d="m 1133.36,342.602 c 2.58,0 4.69,-0.903 6.33,-2.704 1.64,-1.796 2.42,-3.976 2.42,-6.558 v -64.18 c 0,-2.621 -0.78,-4.808 -2.42,-6.601 -1.64,-1.797 -3.75,-2.7 -6.33,-2.7 H 923.281 c -6.172,0 -9.222,3.129 -9.222,9.301 v 321.91 c 0,6.129 3.05,9.258 9.222,9.258 h 67.11 c 6.168,0 9.257,-3.129 9.257,-9.258 V 351.309 c 0,-2.579 0.862,-4.649 2.652,-6.289 1.8,-1.641 3.95,-2.418 6.57,-2.418 h 124.49" />
            <path
               inkscape:connector-curvature="0"
               id="path30"
               style="fill:#000000;fill-opacity:1;fill-rule:nonzero;stroke:none;stroke-width:1.22281444"
               d="m 1497.66,529.781 c 0,-2.582 -0.67,-5.351 -2,-8.281 -1.28,-2.891 -2.77,-5.309 -4.33,-7.262 L 1333.24,336.23 h 155.16 c 2.58,0 4.76,-0.859 6.52,-2.66 1.8,-1.789 2.74,-3.98 2.74,-6.558 V 269.16 c 0,-2.621 -0.94,-4.808 -2.74,-6.601 -1.76,-1.797 -3.94,-2.7 -6.52,-2.7 h -241.72 c -6.13,0 -9.26,3.129 -9.26,9.301 v 60.781 c 0,2.579 0.59,5.43 1.72,8.481 1.13,3.078 2.5,5.617 4.14,7.527 l 161.45,178.012 h -155.12 c -2.62,0 -4.81,0.898 -6.56,2.699 -1.8,1.762 -2.7,3.942 -2.7,6.52 v 57.89 c 0,2.621 0.9,4.77 2.7,6.559 1.75,1.801 3.94,2.699 6.56,2.699 h 238.79 c 2.58,0 4.76,-0.898 6.52,-2.699 1.8,-1.789 2.74,-3.938 2.74,-6.559 v -61.289" />
            <path
               inkscape:connector-curvature="0"
               id="path32"
               style="fill:#000000;fill-opacity:1;fill-rule:nonzero;stroke:none;stroke-width:1.22281444"
               d="m 1700.9,334.281 h 130.82 v 66.168 H 1700.9 Z m 0,131.321 h 130.82 v 60.777 H 1700.9 Z m 204.72,86.097 c 0.98,-2.269 1.88,-5.121 2.66,-8.519 0.82,-3.399 1.25,-6.399 1.25,-8.981 v -53.988 c 0,-2.609 -0.58,-5.473 -1.72,-8.512 -1.13,-3.129 -2.5,-5.629 -4.14,-7.539 l -20.9,-26.762 c -1.64,-1.949 -2.38,-4.378 -2.18,-7.296 0.15,-2.93 1.01,-5.161 2.69,-6.801 l 19.92,-24.34 c 1.6,-1.91 3.09,-4.449 4.38,-7.539 1.29,-3.043 1.95,-5.902 1.95,-8.512 v -57.351 c 0,-2.61 -0.43,-5.539 -1.25,-8.75 -0.78,-3.278 -1.68,-6.008 -2.66,-8.321 L 1860.9,263.77 c -2.31,-1.25 -5.12,-2.27 -8.52,-2.891 -3.43,-0.668 -6.4,-1.02 -8.98,-1.02 h -210.59 c -6.17,0 -9.26,3.129 -9.26,9.301 v 321.91 c 0,2.621 0.9,4.77 2.7,6.559 1.8,1.801 3.95,2.699 6.56,2.699 h 210.59 c 2.58,0 5.55,-0.43 8.98,-1.207 3.4,-0.82 6.21,-1.723 8.52,-2.699 l 44.72,-44.723" />
            <path
               inkscape:connector-curvature="0"
               id="path34"
               style="fill:#000000;fill-opacity:1;fill-rule:nonzero;stroke:none;stroke-width:1.22281444"
               d="m 2118.12,342.09 h 114.3 v 175.512 h -114.3 z m 196.53,209.609 c 0.97,-2.269 1.83,-5.039 2.65,-8.277 0.82,-3.25 1.25,-6.184 1.25,-8.75 V 325.559 c 0,-2.61 -0.43,-5.539 -1.25,-8.75 -0.82,-3.278 -1.68,-6.008 -2.65,-8.321 l -44.77,-44.718 c -2.26,-1.25 -5.11,-2.27 -8.51,-2.891 -3.36,-0.668 -6.41,-1.02 -8.99,-1.02 H 2098.2 c -2.58,0 -5.5,0.352 -8.75,1.02 -3.24,0.621 -5.97,1.641 -8.24,2.891 l -44.76,44.718 c -1.25,2.313 -2.27,5.043 -2.9,8.321 -0.66,3.211 -0.97,6.14 -0.97,8.75 v 209.113 c 0,2.566 0.31,5.5 0.97,8.75 0.63,3.238 1.65,6.008 2.9,8.277 l 44.76,44.723 c 2.27,0.976 5,1.879 8.24,2.699 3.25,0.777 6.17,1.207 8.75,1.207 h 154.18 c 2.58,0 5.63,-0.43 8.99,-1.207 3.4,-0.82 6.25,-1.723 8.51,-2.699 l 44.77,-44.723" />
            <path
               inkscape:connector-curvature="0"
               id="path36"
               style="fill:#000000;fill-opacity:1;fill-rule:nonzero;stroke:none;stroke-width:1.22281444"
               d="m 2676.91,526.852 c 0,-2.571 -0.89,-4.723 -2.65,-6.524 -1.84,-1.797 -3.99,-2.726 -6.56,-2.726 h -69.07 c -2.58,0 -4.76,-0.793 -6.6,-2.391 -1.76,-1.602 -2.65,-3.75 -2.65,-6.332 V 269.16 c 0,-2.621 -0.83,-4.808 -2.43,-6.601 -1.64,-1.797 -3.75,-2.7 -6.33,-2.7 h -67.57 c -2.66,0 -4.81,0.903 -6.6,2.7 -1.76,1.793 -2.66,3.98 -2.66,6.601 v 239.719 c 0,2.582 -0.82,4.73 -2.42,6.332 -1.6,1.598 -3.75,2.391 -6.29,2.391 h -69.1 c -2.58,0 -4.77,0.929 -6.57,2.726 -1.75,1.801 -2.65,3.953 -2.65,6.524 v 64.218 c 0,6.129 3.04,9.258 9.22,9.258 h 241.72 c 2.57,0 4.72,-0.898 6.56,-2.699 1.76,-1.789 2.65,-3.938 2.65,-6.559 v -64.218" />
            <path
               id="path46"
               transform="matrix(8,0,0,-8,0,3060)"
               d="m 178.45312,124.79297 c -0.5225,0 -1.05132,0.19031 -1.48632,0.57031 -0.43375,0.38625 -0.85344,1.61633 -1.42969,3.01758 -0.57125,1.40125 -1.29875,2.96867 -2.34375,4.01367 -1.045,1.05 -2.28508,1.66469 -3.58008,1.83594 -1.29375,0.17125 -2.65008,-0.11102 -3.92383,-0.85352 -1.28,-0.73625 -2.39265,-2.065 -3.3164,-3.28125 -0.9225,-1.21 -1.65524,-2.30484 -2.17774,-2.55859 -0.5125,-0.26 -1.06867,-0.30742 -1.57617,-0.16992 -0.50875,0.13625 -0.96352,0.45375 -1.29102,0.9375 -0.3175,0.48375 -0.39898,1.78492 -0.58398,3.29492 -0.18625,1.50875 -0.47844,3.21234 -1.21094,4.49609 -0.7425,1.28 -1.77898,2.19282 -2.99023,2.69532 -1.20625,0.49875 -2.58156,0.57726 -4.00781,0.19726 -1.425,-0.38625 -2.87157,-1.4125 -4.10157,-2.375 -1.23125,-0.95625 -2.24125,-1.85039 -2.8125,-1.96289 -0.56625,-0.1175 -1.11351,-0.0196 -1.57226,0.24414 -0.45375,0.25875 -0.81071,0.68899 -1.00195,1.24024 -0.18001,0.5475 0.10289,1.86117 0.33789,3.38867 0.23375,1.53875 0.42031,3.2875 0.0391,4.71875 -0.38125,1.425 -1.14164,2.57094 -2.18164,3.36719 -1.035,0.79624 -2.34508,1.23546 -3.83008,1.23046 -1.47375,0 -3.16883,-0.67328 -4.64258,-1.33203 -1.47,-0.65875 -2.71867,-1.31343 -3.29492,-1.27343 -0.57625,0.0338 -1.08541,0.26742 -1.45703,0.63867 -0.371,0.37125 -0.60541,0.87507 -0.64453,1.45507 -0.0385,0.57625 0.61526,1.82493 1.27539,3.29493 0.65862,1.475 1.32812,3.17539 1.32812,4.65039 0,1.47875 -0.43312,2.78726 -1.23437,3.82226 -0.79638,1.03625 -1.95013,1.80164 -3.375,2.18164 -1.43163,0.37625 -3.18305,0.19118 -4.7168,-0.0488 -1.52737,-0.23375 -2.84228,-0.52133 -3.39453,-0.33008 -0.54638,0.18 -0.97119,0.54109 -1.24024,0.99609 -0.25874,0.44875 -0.35456,0.99906 -0.24218,1.57031 0.11762,0.5675 1.00481,1.5825 1.96094,2.8125 0.95748,1.23125 1.98289,2.67227 2.36914,4.10352 0.38137,1.425 0.29742,2.80242 -0.20508,4.01367 -0.499,1.20625 -1.41557,2.24016 -2.69532,2.97266 -1.27875,0.73625 -2.98917,1.03095 -4.49804,1.21093 -1.50875,0.18626 -2.82178,0.26344 -3.30078,0.58594 -0.48238,0.3225 -0.79975,0.78071 -0.9375,1.28321 -0.13625,0.50875 -0.0879,1.05953 0.16601,1.58203 0.25888,0.5175 1.34772,1.25523 2.5586,2.17773 1.2065,0.92375 2.53912,2.03641 3.28125,3.31641 0.73775,1.28375 1.01654,2.63598 0.84179,3.92968 -0.1665,1.29376 -0.78703,2.53047 -1.83203,3.57422 -1.04487,1.045 -2.61229,1.77321 -4.01367,2.34571 -1.40138,0.575 -2.63719,0.98881 -3.02344,1.42383 -0.38625,0.43999 -0.57031,0.96382 -0.57031,1.48632 -0.005,0.5275 0.18406,1.04742 0.57031,1.48242 0.38138,0.435 1.61816,0.85625 3.01953,1.4375 1.40138,0.57125 2.96294,1.29875 4.00782,2.34376 1.04987,1.04375 1.66506,2.27937 1.83593,3.57812 0.1665,1.28875 -0.10748,2.64703 -0.84961,3.92578 -0.74275,1.275 -2.07574,2.39305 -3.2871,3.31055 -1.21001,0.9175 -2.29985,1.65437 -2.5586,2.17187 -0.25387,0.5225 -0.30767,1.08024 -0.16992,1.58399 0.13625,0.5075 0.45362,0.95961 0.9375,1.28711 0.48237,0.3175 1.79105,0.40054 3.29492,0.59179 1.50875,0.18 3.21917,0.47469 4.49805,1.21094 1.27875,0.7375 2.19781,1.77227 2.69531,2.97852 0.499,1.21125 0.58056,2.58867 0.19531,4.01367 -0.38137,1.43125 -1.41164,2.87656 -2.36914,4.10156 -0.96137,1.23125 -1.85404,2.24125 -1.96679,2.8125 -0.11713,0.5725 -0.0146,1.11352 0.24414,1.57227 0.26375,0.455 0.69287,0.81609 1.23437,0.99609 0.55225,0.19125 1.86764,-0.0931 3.40039,-0.32812 1.52825,-0.23875 3.28469,-0.42297 4.71094,-0.043 1.42962,0.38625 2.58205,1.14273 3.37305,2.17773 0.79637,1.04 1.23544,2.34703 1.23047,3.83203 -0.005,1.475 -0.67316,3.17539 -1.33204,4.65039 -0.66362,1.465 -1.31292,2.71407 -1.27929,3.28907 0.0401,0.58125 0.26803,1.09007 0.64453,1.45507 0.36612,0.37125 0.87284,0.61079 1.44922,0.64454 0.58125,0.0387 1.82773,-0.60954 3.30273,-1.26954 1.47,-0.65875 3.16758,-1.33203 4.64258,-1.33203 1.47875,0 2.79312,0.44438 3.82812,1.23438 1.035,0.79125 1.79774,1.94961 2.17774,3.38086 0.37625,1.42487 0.19008,3.17623 -0.0449,4.70507 -0.23375,1.53901 -0.5211,2.84569 -0.33985,3.39844 0.19,0.54638 0.545,0.97174 1,1.24024 0.45375,0.25887 1.00602,0.35651 1.57227,0.24414 0.5675,-0.11125 1.5825,-1.00002 2.8125,-1.96289 1.23125,-0.957 2.67617,-1.98732 4.10742,-2.36719 1.425,-0.3765 2.80156,-0.2988 4.00781,0.20508 1.205,0.5025 2.24227,1.41459 2.97852,2.69922 0.7375,1.27887 1.03094,2.98917 1.21094,4.49804 0.18625,1.50875 0.26343,2.81691 0.58593,3.30078 0.3175,0.4785 0.77571,0.8003 1.28321,0.93164 0.50375,0.13625 1.06062,0.0888 1.57812,-0.16992 0.5225,-0.254 1.25414,-1.34868 2.18164,-2.55468 0.9225,-1.20513 2.03766,-2.539 3.31641,-3.28125 1.28,-0.73638 2.63703,-1.00927 3.92578,-0.83789 1.29875,0.16498 2.52811,0.78457 3.57813,1.83007 1.03999,1.04488 1.76859,2.61133 2.33984,4.01758 0.57125,1.40138 0.99664,2.6377 1.43164,3.01758 0.435,0.38625 0.95617,0.57617 1.48242,0.57617 0.5225,0 1.04547,-0.18894 1.48047,-0.57031 0.435,-0.37988 0.8593,-1.62206 1.43555,-3.02344 0.57125,-1.40137 1.29875,-2.96392 2.34375,-4.01367 1.045,-1.045 2.28634,-1.66005 3.58007,-1.82617 1.29375,-0.17038 2.65008,0.10845 3.92383,0.8457 1.285,0.74763 2.39266,2.07428 3.31641,3.28516 0.9225,1.2115 1.65633,2.30179 2.17383,2.56054 0.5225,0.25875 1.07328,0.3013 1.58203,0.16993 0.5075,-0.13725 0.9607,-0.45416 1.2832,-0.93164 0.3225,-0.48388 0.40555,-1.79204 0.5918,-3.30079 0.185,-1.50875 0.47273,-3.21817 1.20898,-4.49804 0.7425,-1.27875 1.77813,-2.19832 2.98438,-2.69532 1.21125,-0.49762 2.58742,-0.58143 4.01367,-0.19531 1.43125,0.37988 2.87656,1.41155 4.10156,2.37305 1.23125,0.96237 2.24125,1.85001 2.8125,1.96289 0.56625,0.11612 1.11266,0.0146 1.56641,-0.24414 0.45375,-0.26375 0.8157,-0.688 1.00195,-1.23438 0.185,-0.54737 -0.097,-1.86676 -0.33203,-3.40039 -0.23375,-1.52737 -0.42617,-3.28068 -0.0449,-4.71093 0.38625,-1.421 1.1475,-2.57875 2.1875,-3.375 1.035,-0.79 2.35008,-1.23461 3.83008,-1.22461 1.47375,-0.005 3.17258,0.66914 4.64258,1.33789 1.46874,0.66 2.71867,1.30914 3.29492,1.27539 0.57625,-0.0387 1.08381,-0.27914 1.45508,-0.65039 0.36625,-0.36625 0.61273,-0.87493 0.64648,-1.45118 0.0337,-0.57625 -0.61039,-1.82578 -1.27539,-3.30078 -0.65875,-1.46875 -1.32313,-3.16882 -1.32813,-4.64257 0,-1.48 0.43813,-2.79313 1.23438,-3.82813 0.79625,-1.035 1.95,-1.79758 3.375,-2.17383 1.43125,-0.38625 3.17805,-0.19383 4.7168,0.0449 1.5275,0.235 2.84203,0.5179 3.39453,0.33789 0.54625,-0.18625 0.97648,-0.5482 1.24023,-1.00195 0.25875,-0.45375 0.35469,-1.00211 0.24219,-1.56836 -0.1175,-0.57125 -1.00469,-1.5914 -1.96094,-2.8164 -0.9575,-1.22625 -1.98289,-2.67657 -2.36914,-4.10157 -0.38,-1.43125 -0.29242,-2.80242 0.20508,-4.01367 0.50375,-1.20625 1.41117,-2.24211 2.70117,-2.97461 1.27875,-0.7425 2.98147,-1.02859 4.49024,-1.21484 1.50375,-0.18 2.81898,-0.26344 3.30273,-0.58594 0.47875,-0.31625 0.80125,-0.7768 0.9375,-1.2793 0.13625,-0.5075 0.0819,-1.05953 -0.17188,-1.58203 -0.25875,-0.5225 -1.34843,-1.25398 -2.55468,-2.17773 -1.21125,-0.9225 -2.54266,-2.04156 -3.28516,-3.32031 -0.7375,-1.27875 -1.00984,-2.63079 -0.83984,-3.92579 0.17125,-1.29874 0.79093,-2.52921 1.83593,-3.57421 1.045,-1.04 2.61743,-1.7675 4.01368,-2.34375 1.40125,-0.57125 2.63757,-0.99081 3.01757,-1.42578 0.38625,-0.43875 0.57618,-0.96188 0.57618,-1.48438 0,-0.5225 -0.18993,-1.04936 -0.57618,-1.48438 -0.37625,-0.43374 -1.61742,-0.85343 -3.01367,-1.42968 -1.39625,-0.57625 -2.96758,-1.29961 -4.01758,-2.34961 -1.035,-1.045 -1.65492,-2.28047 -1.82617,-3.57422 -0.17,-1.3 0.11211,-2.65289 0.84961,-3.93164 0.7425,-1.27875 2.07086,-2.38609 3.28711,-3.30859 1.21125,-0.92375 2.29985,-1.66133 2.55859,-2.17383 0.25876,-0.5225 0.30743,-1.07453 0.16993,-1.58203 -0.13625,-0.50875 -0.45375,-0.96657 -0.9375,-1.28907 -0.4775,-0.31625 -1.78618,-0.40593 -3.29493,-0.58593 -1.50874,-0.19125 -3.2189,-0.4793 -4.5039,-1.2168 -1.27375,-0.7375 -2.19195,-1.77117 -2.68945,-2.98242 -0.50375,-1.20625 -0.58157,-2.58242 -0.19532,-4.01368 0.38,-1.42499 1.40969,-2.87156 2.36719,-4.10156 0.9625,-1.225 1.85164,-2.24234 1.96289,-2.80859 0.1175,-0.56625 0.0196,-1.11352 -0.24414,-1.57227 -0.26375,-0.45375 -0.68812,-0.80984 -1.23437,-0.99609 -0.5525,-0.185 -1.85883,0.097 -3.39258,0.33203 -1.53375,0.23375 -3.2868,0.41531 -4.7168,0.0391 -1.42125,-0.38125 -2.57375,-1.14664 -3.375,-2.18164 -0.79125,-1.04 -1.22461,-2.34937 -1.22461,-3.82812 0.005,-1.475 0.67719,-3.17258 1.33594,-4.64258 0.65875,-1.475 1.31414,-2.72063 1.27539,-3.29688 -0.04,-0.58125 -0.27328,-1.08382 -0.64453,-1.45507 -0.37125,-0.37625 -0.87297,-0.60454 -1.44922,-0.64453 -0.58125,-0.0388 -1.83274,0.60968 -3.30273,1.27343 -1.47375,0.65375 -3.17274,1.32313 -4.64649,1.32813 -1.475,-0.005 -2.79422,-0.43813 -3.82422,-1.23438 -1.035,-0.79625 -1.79773,-1.95 -2.17773,-3.375 -0.38125,-1.43625 -0.19008,-3.18804 0.0449,-4.71679 0.23375,-1.5325 0.52219,-2.84633 0.33594,-3.39258 -0.19,-0.5475 -0.54235,-0.97649 -0.9961,-1.24024 -0.455,-0.25875 -1.00101,-0.3625 -1.57226,-0.25 -0.56625,0.1175 -1.5825,1.0075 -2.8125,1.96875 -1.23625,0.9575 -2.67656,1.98203 -4.10156,2.36328 -1.43626,0.38625 -2.81243,0.30133 -4.01368,-0.20117 -1.20625,-0.5025 -2.24101,-1.41461 -2.97851,-2.69336 -0.7375,-1.29 -1.02594,-2.99515 -1.21094,-4.5039 -0.185,-1.50375 -0.26344,-2.81618 -0.58594,-3.29493 -0.3225,-0.4825 -0.78179,-0.80085 -1.27929,-0.94335 -0.5075,-0.13125 -1.07039,-0.0819 -1.5879,0.17187 -0.5175,0.25875 -1.25523,1.34648 -2.17773,2.55274 -0.9175,1.21625 -2.0357,2.5446 -3.31445,3.2871 -1.28,0.7375 -2.63789,1.01696 -3.93164,0.84571 -1.29875,-0.17625 -2.52727,-0.7968 -3.57227,-1.8418 -1.04,-1.045 -1.76859,-2.61242 -2.33984,-4.01367 -0.57625,-1.40125 -0.99664,-2.63633 -1.43164,-3.01758 -0.43375,-0.385 -0.95492,-0.57117 -1.48243,-0.57617 z m 0.0176,9.82031 c 2.07625,0 3.75,1.675 3.75,3.75 0,2.07 -1.67375,3.74414 -3.75,3.74414 -2.075,0 -3.75,-1.67414 -3.75,-3.74414 0,-2.075 1.675,-3.75 3.75,-3.75 z m -0.0625,10.80469 c 14.955,0 29.00844,5.81117 39.55469,16.35742 21.80625,21.81125 21.8015,57.29422 -0.01,79.10547 -10.54125,10.5525 -24.58882,16.35742 -39.54882,16.35742 -14.95625,0 -29.00063,-5.80492 -39.54688,-16.35742 C 128.30617,230.33461 122.5,216.29203 122.5,201.33203 c -0.005,-14.95625 5.80531,-29.00523 16.35156,-39.55273 10.5475,-10.55125 24.60039,-16.36133 39.55664,-16.36133 z m 0,1.85937 c -7.03125,0 -13.88258,1.33453 -20.36132,3.95704 -6.71,2.71374 -12.72375,6.70312 -17.875,11.85937 -21.08388,21.08375 -21.08389,55.38961 0,76.47461 5.15124,5.15125 11.16499,9.14133 17.875,11.86133 6.47875,2.62125 13.33117,3.94922 20.35742,3.94922 h 0.004 c 7.02625,0 13.87744,-1.32797 20.35742,-3.94922 6.70876,-2.715 12.72375,-6.70899 17.875,-11.86524 5.1575,-5.15125 9.14524,-11.1682 11.86524,-17.87695 2.61625,-6.48 3.95117,-13.32922 3.95117,-20.35547 0,-7.03125 -1.32992,-13.88258 -3.95117,-20.36133 -2.715,-6.71 -6.70883,-12.7257 -11.86133,-17.87695 -5.15125,-5.15125 -11.16625,-9.14562 -17.875,-11.85937 -6.485,-2.62251 -13.33508,-3.95704 -20.36133,-3.95704 z m 0.86914,3.56055 -0.0918,6.24023 c -0.5275,-0.009 -1.06039,-0.006 -1.58789,0.004 l -0.11719,-6.23437 c 0.59625,-0.02 1.19562,-0.0148 1.79687,-0.01 z m 5.39063,0.38086 c 0.59625,0.0725 1.18625,0.15641 1.78125,0.25391 l -0.98633,6.1582 c -0.5175,-0.0838 -1.04,-0.15695 -1.5625,-0.2207 z m -12.57813,0.0156 0.78125,6.1914 c -0.5225,0.0675 -1.0439,0.13516 -1.5664,0.22266 l -0.99219,-6.16016 c 0.58625,-0.0937 1.18609,-0.18141 1.77734,-0.2539 z m 19.64454,1.37109 c 0.58125,0.15625 1.1514,0.32781 1.72265,0.50781 l -1.85156,5.95703 c -0.4975,-0.16125 -1.00531,-0.3082 -1.50781,-0.43945 z m -26.70508,0.0293 1.64648,6.01562 c -0.5075,0.14125 -1.01703,0.28906 -1.51953,0.44531 l -1.85547,-5.95312 c 0.57125,-0.18625 1.14852,-0.34656 1.72852,-0.50781 z m -31.13086,0.37695 c 0.95937,0.001 1.91844,0.36992 2.64844,1.10742 1.465,1.465 1.465,3.83773 0,5.30274 -0.73751,0.72249 -1.6829,1.09765 -2.6504,1.09765 -0.96125,0 -1.92398,-0.37516 -2.64648,-1.09765 -1.465,-1.47375 -1.465,-3.83751 0,-5.3125 0.73,-0.73251 1.68906,-1.09891 2.64844,-1.09766 z m 89.13867,0.0254 c 0.95906,-0.002 1.91984,0.3632 2.65234,1.0957 1.46,1.465 1.47375,3.8375 0,5.3125 -0.7275,0.7225 -1.69109,1.09961 -2.65234,1.09961 -0.9475,0 -1.91398,-0.37711 -2.64649,-1.09961 -1.46375,-1.465 -1.46375,-3.83687 0,-5.29687 0.73001,-0.74 1.68743,-1.10946 2.64649,-1.11133 z m -24.51172,1.95117 c 0.5525,0.235 1.09313,0.48344 1.64063,0.74219 l -2.68164,5.63476 c -0.47375,-0.225 -0.95485,-0.44429 -1.4336,-0.65429 z m -40.28711,0.0352 2.47461,5.73242 c -0.4825,0.205 -0.9657,0.42469 -1.43945,0.64844 l -2.68555,-5.63477 c 0.55125,-0.25875 1.09414,-0.50734 1.65039,-0.74609 z m 46.67969,3.29883 c 0.5075,0.3125 1.00492,0.63429 1.51367,0.96679 l -3.45312,5.19532 c -0.445,-0.2925 -0.88789,-0.57602 -1.3379,-0.85352 z m -53.07617,0.0351 3.27539,5.3125 c -0.445,0.2775 -0.89313,0.56102 -1.32813,0.85352 l -3.46679,-5.18555 c 0.4975,-0.3375 1.00578,-0.66297 1.51953,-0.98047 z m 26.57031,2.19727 c 10.90875,0 21.1475,4.23344 28.84375,11.92969 7.695,7.69 11.92969,17.9339 11.92969,28.84765 0,10.9075 -4.2436,21.15266 -11.9336,28.84766 -7.69125,7.69 -17.93625,11.92187 -28.84375,11.92187 -10.90875,0 -21.1525,-4.23187 -28.84375,-11.92187 -7.695,-7.695 -11.93359,-17.94016 -11.93359,-28.84766 0,-10.90875 4.23469,-21.1525 11.92969,-28.84375 7.69625,-7.695 17.93906,-11.93359 28.85156,-11.93359 z m -0.004,1.85937 c -10.41125,0 -20.1914,4.04297 -27.53515,11.38672 -7.33875,7.33875 -11.38086,17.12125 -11.38086,27.53125 0,10.41 4.04297,20.18358 11.38672,27.52735 7.34375,7.33875 17.11804,11.38867 27.52929,11.38867 10.41,0 20.19055,-4.04495 27.5293,-11.38867 7.34375,-7.33875 11.38672,-17.11235 11.38672,-27.52735 0,-10.41 -4.04297,-20.1925 -11.38672,-27.53125 -7.33875,-7.34375 -17.1143,-11.38672 -27.5293,-11.38672 z m 32.37891,0.13282 c 0.48375,0.40999 0.91203,0.77585 1.33203,1.1621 l -4.16602,4.64258 c -0.37125,-0.3325 -0.74546,-0.65687 -1.13671,-0.98437 l 1.94336,-2.44141 z m -64.79492,0.0352 4.00781,4.78516 c -0.405,0.33625 -0.80531,0.68195 -1.19531,1.0332 l -4.17578,-4.63281 c 0.44875,-0.41 0.89953,-0.80055 1.36328,-1.18555 z m 69.96093,4.93555 c 0.39501,0.44375 0.78969,0.90719 1.17969,1.36719 l -4.7832,4.0039 c -0.3375,-0.405 -0.685,-0.8014 -1.03125,-1.1914 z m -75.14257,0.0684 4.64257,4.16992 c -0.34125,0.38 -0.67351,0.77102 -1.00976,1.16602 l -0.10156,0.11718 -1.75977,-1.625 -2.94922,-2.46679 0.0293,-0.0293 c 0.37625,-0.44875 0.75844,-0.89828 1.14844,-1.33203 z m 41.50781,1.9082 c 0.7725,-0.01 1.50078,0.18172 2.14453,0.48047 0.3225,0.14625 0.63422,0.31609 0.91797,0.49609 0.3175,0.21 0.59,0.43047 0.84375,0.69922 0.5225,0.5325 0.91484,1.25414 1.02734,2.02539 0.1125,0.75125 -0.0356,1.51899 -0.32812,2.17774 -0.2975,0.65375 -0.73781,1.2314 -1.28906,1.6914 -0.5475,0.44375 -1.2318,0.79391 -1.99805,0.84766 l -0.01,-0.0137 c -0.0288,0.0138 -0.0591,0.01 -0.0879,0.01 -0.28375,0.025 -0.52617,-0.21008 -0.54492,-0.51758 -0.015,-0.3025 0.20492,-0.56117 0.48242,-0.57617 0.025,-0.004 0.0586,-0.004 0.0586,-0.004 0.46875,-0.0538 0.93211,-0.31266 1.31836,-0.66016 0.38125,-0.35125 0.68914,-0.80055 0.86914,-1.2793 0.18625,-0.47875 0.24289,-0.9964 0.15039,-1.4414 -0.0975,-0.46875 -0.34516,-0.86867 -0.69141,-1.20117 -0.18125,-0.16 -0.40242,-0.3211 -0.60742,-0.4336 -0.24875,-0.14625 -0.48742,-0.26297 -0.73242,-0.35547 -0.4875,-0.19125 -0.98524,-0.27984 -1.45899,-0.24609 -0.46875,0.035 -0.92789,0.18656 -1.33789,0.44531 -0.205,0.13125 -0.41078,0.28297 -0.58203,0.44922 -0.0925,0.0925 -0.17906,0.18594 -0.25781,0.27344 -0.0388,0.0487 -0.0745,0.10273 -0.11328,0.14648 l -0.0527,0.0742 c -0.005,0.005 -0.0184,0.033 -0.0234,0.043 l -0.0215,0.0234 -0.0371,0.0449 -0.0742,0.12109 -0.10351,0.16211 c -0.0588,0.1125 -0.12008,0.22539 -0.17383,0.33789 -0.1025,0.23375 -0.19117,0.47219 -0.26367,0.71094 -0.1225,0.47875 -0.16641,0.96125 -0.0977,1.40625 l 0.008,0.0937 0.0215,0.0742 0.01,0.0527 0.01,0.0293 0.0176,0.0742 c 0.02,0.0825 0.055,0.15492 0.0937,0.23242 0.0837,0.15125 0.20117,0.3036 0.35742,0.46484 0.32125,0.3275 0.78594,0.65985 1.27344,0.9961 0.99625,0.66875 2.06492,1.37109 3.07617,2.15234 0.5075,0.385 1.00062,0.7968 1.48437,1.2168 l 0.36133,0.32226 0.35156,0.31641 c 0.2925,0.28875 0.56688,0.59188 0.79688,0.95313 0.46375,0.7025 0.70664,1.53687 0.77539,2.32812 0.0725,0.80625 0.01,1.55875 -0.10156,2.28125 -0.1125,0.71875 -0.28414,1.40617 -0.49414,2.07617 -0.205,0.65875 -0.45977,1.29883 -0.72852,1.92383 -0.24375,0.57125 -0.50641,1.13149 -0.78516,1.67774 0,0 2.4e-4,0.01 -0.01,0.0195 -0.1025,0.26875 -1.29891,3.53062 1.62109,1.10937 0.0487,-0.0387 0.0926,-0.0843 0.14258,-0.12305 0.0238,-0.0188 0.0529,-0.0483 0.0879,-0.0684 0.215,-0.195 0.41914,-0.37422 0.61914,-0.57422 0.805,-0.7475 1.54274,-1.56383 2.17774,-2.42383 0.64,-0.855 1.14257,-1.77125 1.45507,-2.71875 0.0838,-0.23875 0.14047,-0.46391 0.19922,-0.72266 l 0.1875,-0.8789 0.34571,-1.77344 0.35156,-1.79102 c 0.1275,-0.6 0.25297,-1.21593 0.44922,-1.83593 0.185,-0.625 0.46945,-1.26883 0.8457,-1.83008 0.19,-0.27375 0.39547,-0.5286 0.60547,-0.77735 0.23375,-0.27875 0.48234,-0.50789 0.74609,-0.71289 0.53125,-0.42 1.10797,-0.73367 1.69922,-0.98242 0.2925,-0.12625 0.59578,-0.23258 0.89453,-0.33008 0.3125,-0.0975 0.59477,-0.17734 0.94727,-0.24609 l 0.0723,-0.0176 0.0586,0.004 c 0.23,0.009 0.39031,0.0435 0.57031,0.0723 0.17625,0.03 0.35305,0.0693 0.5293,0.12305 0.34625,0.0925 0.68742,0.21484 1.01367,0.37109 0.655,0.3025 1.24976,0.7461 1.72852,1.3086 0.48875,0.54625 0.83554,1.2014 1.06054,1.8789 0.0975,0.3425 0.17672,0.68375 0.23047,1.03125 0.0575,0.37625 0.0672,0.73829 0.0234,1.11329 -0.0775,0.75749 -0.43422,1.50374 -0.98047,2.03124 -0.5525,0.52751 -1.23094,0.86969 -1.92969,1.05469 -0.69375,0.19 -1.42031,0.23938 -2.13281,0.14063 -0.68875,-0.1075 -1.40156,-0.32102 -2.00781,-0.85352 -0.0188,-0.015 -0.0397,-0.034 -0.0547,-0.0527 h -0.004 c -0.255,-0.24875 -0.27273,-0.6268 -0.0527,-0.8418 0.21,-0.22 0.58008,-0.18992 0.83008,0.0488 l 0.004,0.006 0.004,0.01 c 0.3325,0.32625 0.87039,0.54602 1.43164,0.63477 0.56625,0.0775 1.16336,0.0447 1.72461,-0.10156 0.55125,-0.1475 1.07273,-0.40696 1.45898,-0.78321 0.38125,-0.38 0.60946,-0.87304 0.65821,-1.40429 0.0387,-0.26875 0.0212,-0.56243 -0.0176,-0.82617 -0.0538,-0.29751 -0.1232,-0.58165 -0.2207,-0.86915 -0.2,-0.54625 -0.47899,-1.05461 -0.86524,-1.47461 -0.38,-0.41499 -0.85812,-0.73804 -1.39062,-0.96679 -0.25875,-0.1225 -0.53196,-0.21055 -0.81446,-0.2793 -0.14125,-0.0238 -0.29039,-0.0624 -0.43164,-0.0762 -0.0975,-0.02 -0.2189,-0.0302 -0.3164,-0.0352 -0.225,0.0538 -0.47914,0.13625 -0.71289,0.21875 -0.25875,0.0975 -0.51672,0.20563 -0.76172,0.32813 -0.5025,0.23375 -0.96242,0.51211 -1.35742,0.84961 -0.20125,0.165 -0.3811,0.36211 -0.52735,0.53711 -0.15625,0.215 -0.31195,0.43922 -0.43945,0.66797 -0.26375,0.45 -0.43047,0.91867 -0.54297,1.45117 -0.21875,1.05875 -0.26797,2.24523 -0.29297,3.42773 -0.005,0.59 8.6e-4,1.18195 0.006,1.78321 l 0.0195,0.89648 c 0,0.3325 -0.0238,0.69975 -0.0625,1.04102 -0.16125,1.3925 -0.60633,2.69039 -1.14258,3.90039 -0.5475,1.21625 -1.2014,2.34359 -1.91015,3.43359 -0.7125,1.09375 -1.47391,2.12391 -2.28516,3.12891 -0.0537,0.0687 -0.11336,0.13757 -0.16211,0.20507 0.68375,-0.4 1.39242,-0.78054 2.13867,-1.12304 0.635,-0.27875 1.29078,-0.54563 1.98828,-0.76563 0.71375,-0.215 1.46922,-0.3907 2.32422,-0.43945 0.83875,-0.0487 1.81641,0.0433 2.75391,0.48828 0.45875,0.215 0.87945,0.51811 1.2207,0.85938 0.3475,0.3425 0.63031,0.73164 0.82031,1.08789 0.0737,0.1375 0.13157,0.27867 0.19532,0.41992 0.0725,0.1425 0.14711,0.26875 0.22461,0.40625 l 0.43945,0.80078 0.85547,1.60156 c 0.54625,1.065 1.09687,2.12391 1.70312,3.06641 0.2975,0.4725 0.62946,0.9025 0.97071,1.25 0.18125,0.165 0.35781,0.30742 0.53906,0.41992 0.0825,0.0487 0.17508,0.10383 0.26758,0.14258 0.11625,0.0337 0.21578,0.0678 0.33203,0.10156 0.45,0.1175 0.94765,0.13586 1.44141,0.0684 0.24875,-0.04 0.49648,-0.10117 0.74023,-0.16992 0.1225,-0.0437 0.25078,-0.0899 0.36328,-0.13867 l 0.17383,-0.0723 0.14258,-0.0684 0.0625,-0.0293 0.006,-0.004 c 0.0231,-0.0119 0.0862,-0.0466 0.13281,-0.0801 0.0575,-0.0238 0.10656,-0.0581 0.16406,-0.0918 0.1025,-0.0725 0.21,-0.14672 0.3125,-0.23047 0.205,-0.16 0.38649,-0.34687 0.55274,-0.54687 0.3225,-0.395 0.55203,-0.8543 0.64453,-1.3418 0.1025,-0.49375 0.069,-1.02633 -0.0723,-1.54883 -0.0687,-0.2675 -0.15289,-0.52031 -0.27539,-0.78906 -0.1025,-0.23 -0.22961,-0.47969 -0.38086,-0.67969 -0.3025,-0.415 -0.70117,-0.72179 -1.16992,-0.87304 -0.46875,-0.1575 -1.00727,-0.14836 -1.50977,-0.006 -0.5075,0.13125 -0.99062,0.4007 -1.39062,0.75195 -0.39125,0.3325 -0.67875,0.76133 -0.78125,1.20508 -0.005,0.015 -0.005,0.0288 -0.01,0.0488 -0.03,0.0825 -0.074,0.17273 -0.14648,0.24023 -0.22,0.22 -0.57602,0.22 -0.79102,0 -0.17125,-0.16 -0.20601,-0.42393 -0.10351,-0.6289 0.195,-0.68875 0.62086,-1.24594 1.09961,-1.67969 0.5225,-0.47375 1.14156,-0.82024 1.82031,-1.02149 0.67875,-0.185 1.42578,-0.22367 2.14453,-0.0137 0.7175,0.205 1.35227,0.67289 1.79102,1.24414 0.225,0.2825 0.40515,0.5711 0.5664,0.90235 0.1425,0.29875 0.2686,0.62476 0.3711,0.94726 0.2,0.66375 0.27937,1.39358 0.17187,2.1211 -0.0925,0.72749 -0.40117,1.42351 -0.82617,2.00976 -0.21,0.2875 -0.46,0.55188 -0.71875,0.79688 -0.13625,0.12125 -0.27172,0.23429 -0.41797,0.34179 -0.0787,0.0487 -0.1532,0.1025 -0.2207,0.15625 -0.0787,0.0437 -0.12711,0.084 -0.22461,0.13282 -0.0925,0.0575 -0.15672,0.091 -0.23047,0.13476 -0.0775,0.0338 -0.15602,0.0841 -0.22852,0.11914 -0.15625,0.0775 -0.3114,0.14524 -0.47265,0.20899 -0.3125,0.12125 -0.64508,0.22421 -0.98633,0.29296 -0.67375,0.14625 -1.40664,0.17547 -2.11914,0.043 -0.18625,-0.0337 -0.37172,-0.076 -0.54297,-0.13476 -0.19,-0.0537 -0.38062,-0.1343 -0.54688,-0.2168 -0.35624,-0.16625 -0.66374,-0.38461 -0.9375,-0.59961 -0.56125,-0.44875 -0.99492,-0.94203 -1.41992,-1.42578 -0.42,-0.47875 -0.80759,-0.97719 -1.17382,-1.46094 l -1.09766,-1.44922 -1.08008,-1.42578 -0.53711,-0.69726 c -0.0975,-0.1175 -0.18375,-0.23016 -0.28125,-0.34766 -0.0975,-0.1075 -0.20523,-0.21476 -0.30273,-0.32227 -0.27375,-0.2675 -0.47477,-0.31835 -0.66602,-0.31835 -0.19,-0.004 -0.44375,0.04 -0.78125,0.15625 -0.6825,0.235 -1.53664,0.76734 -2.33789,1.40234 -0.805,0.63375 -1.60229,1.39148 -2.35351,2.17773 -0.05,0.0537 -0.0988,0.0975 -0.14258,0.15625 0.86,0.76125 1.70562,1.54705 2.51562,2.42578 0.4975,0.55626 1.00547,1.14377 1.44922,1.8125 0.45375,0.665 0.86945,1.43547 1.1582,2.32422 0.27375,0.88875 0.37102,1.93703 0.16602,2.89454 -0.1025,0.48374 -0.27375,0.92273 -0.46875,1.33398 -0.0588,0.10625 -0.0832,0.15977 -0.12695,0.22852 l -0.11328,0.19531 -0.20899,0.39062 c -0.56625,1.04 -1.1032,2.08672 -1.5332,3.13672 -0.445,1.05 -0.80031,2.12289 -0.88281,3.11914 -0.0437,0.48375 -0.0201,0.95086 0.10742,1.38086 0.0288,0.1075 0.0665,0.21086 0.11523,0.31836 0.005,0.015 0.0309,0.0589 0.0547,0.0977 0.02,0.0437 0.0531,0.0882 0.0781,0.12695 0.1075,0.175 0.26446,0.3357 0.43946,0.50195 0.71875,0.64 1.81226,1.12461 2.82226,1.41211 l 0.0293,0.01 c 0.0487,0 0.11336,2.3e-4 0.16211,-0.01 0.11125,0 0.22234,-0.01 0.33984,-0.0195 0.23,-0.0337 0.45469,-0.0876 0.67969,-0.16015 0.44375,-0.15251 0.84906,-0.39623 1.19531,-0.71876 0.35625,-0.31749 0.65391,-0.71726 0.87891,-1.16601 l 0.084,-0.18164 h 0.004 v -0.006 l 0.006,-0.004 v -0.0137 l 0.0254,-0.0488 0.0371,-0.0976 c 0.0438,-0.10375 0.0889,-0.21649 0.12891,-0.33399 0.0675,-0.225 0.11148,-0.46359 0.11523,-0.68359 0.02,-0.44 -0.092,-0.85492 -0.3457,-1.20117 -0.25375,-0.35125 -0.64047,-0.61977 -1.07422,-0.79102 -0.44,-0.16625 -0.92664,-0.25351 -1.40039,-0.22851 -0.46875,0.0288 -0.91391,0.0673 -1.34766,0.22851 -0.30875,0.16125 -0.68398,0.0497 -0.86523,-0.25781 -0.17625,-0.2875 -0.1075,-0.66828 0.15625,-0.86328 l 0.0195,-0.0215 c 0.0588,-0.0187 0.1025,-0.0484 0.15625,-0.0684 0.6,-0.3025 1.2307,-0.41406 1.8457,-0.41406 0.66875,0 1.32922,0.12688 1.94922,0.39063 0.605,0.26375 1.19609,0.66875 1.62109,1.25 0.425,0.58125 0.63813,1.32773 0.60938,2.02148 -0.005,0.3475 -0.064,0.6825 -0.14649,1 -0.0388,0.16125 -0.0866,0.31313 -0.15039,0.48438 l -0.084,0.21875 -0.10352,0.21093 c -0.2675,0.57625 -0.62437,1.14125 -1.07812,1.625 -0.45375,0.47875 -1.02453,0.87469 -1.64453,1.14844 -0.3075,0.14125 -0.63125,0.24242 -0.96875,0.32617 -0.16125,0.0288 -0.32485,0.0594 -0.4961,0.0781 -0.0925,0.01 -0.17617,0.0263 -0.26367,0.0312 l -0.14258,0.004 c -0.0487,0.005 -0.0835,0.005 -0.16601,0 h -0.0391 l -0.0723,-0.0156 c -0.36625,-0.0737 -0.65992,-0.15078 -0.98242,-0.23828 -0.3175,-0.1025 -0.625,-0.20563 -0.9375,-0.32813 -0.625,-0.24875 -1.23508,-0.55148 -1.83008,-0.99023 -0.2925,-0.215 -0.57633,-0.47352 -0.83008,-0.79102 -0.0737,-0.0775 -0.1339,-0.16164 -0.1914,-0.24414 -0.0588,-0.0837 -0.1118,-0.16678 -0.18555,-0.2793 -0.0925,-0.16624 -0.18102,-0.34132 -0.25977,-0.51757 -0.3175,-0.7075 -0.45734,-1.46414 -0.49609,-2.18164 -0.045,-0.7225 0.0128,-1.41047 0.10156,-2.07422 0.0925,-0.66375 0.21985,-1.31055 0.37109,-1.93555 0.29876,-1.26 1.98696,-6.38086 -0.96679,-7.00586 0,0 -0.005,-0.01 -0.0195,-0.01 -0.35125,-0.1125 -6.15235,-1.74375 -13.90235,5.46875 -2.43125,2.23625 1.64258,5.76171 1.64258,5.76171 0.87375,0.87375 1.76711,1.74657 2.63086,2.75782 0.435,0.5125 0.85406,1.0614 1.19531,1.7539 0.17125,0.3525 0.31211,0.73711 0.38086,1.16211 0.0387,0.21 0.0497,0.42453 0.0547,0.64453 -0.005,0.0537 -0.01,0.10727 -0.01,0.16602 l -0.01,0.0684 -0.006,0.0625 -0.0137,0.15234 -0.0195,0.13672 c -0.1225,0.7625 -0.41078,1.46016 -0.80078,2.06641 -0.19625,0.2925 -0.40469,0.5889 -0.64844,0.84765 -0.1075,0.1375 -0.23594,0.26336 -0.36719,0.38086 -0.0588,0.0588 -0.13047,0.11789 -0.19922,0.18164 -0.0687,0.0625 -0.12797,0.11305 -0.23047,0.18555 -0.0675,0.0688 -0.11679,0.0919 -0.18554,0.14063 -0.0788,0.0637 -0.14586,0.10836 -0.22461,0.1621 -0.15125,0.0975 -0.3125,0.18508 -0.46875,0.26758 -0.3175,0.16125 -0.65352,0.2986 -1.00977,0.40235 -0.69875,0.19 -1.46594,0.20898 -2.17969,0.0527 -0.7175,-0.15125 -1.36656,-0.4932 -1.91406,-0.9082 -0.26875,-0.21 -0.53125,-0.44594 -0.75,-0.67969 -0.255,-0.26875 -0.47,-0.53625 -0.65625,-0.84375 -0.37125,-0.61 -0.59375,-1.36726 -0.53125,-2.10352 0.0438,-0.7425 0.34172,-1.42593 0.76172,-1.99218 0.41,-0.57125 0.95227,-1.03188 1.57226,-1.35938 0.59625,-0.3225 1.29391,-0.51672 2.03516,-0.44922 0.1475,-0.004 0.31305,0.0544 0.43555,0.17188 0.225,0.23 0.22953,0.58492 0.0195,0.79492 -0.14625,0.14125 -0.35125,0.18656 -0.53125,0.13281 -0.45875,-0.0725 -0.98633,0.0538 -1.45508,0.29883 -0.47375,0.24875 -0.88953,0.60992 -1.20703,1.04492 -0.3075,0.42375 -0.49297,0.93243 -0.51172,1.41992 -0.02,0.49876 0.13141,0.98141 0.41016,1.41016 0.13625,0.22 0.32195,0.43031 0.50195,0.60156 0.215,0.2 0.42539,0.37485 0.65039,0.52735 0.44375,0.3125 0.93719,0.52211 1.42969,0.59961 0.49375,0.0825 1.00562,0.0209 1.48437,-0.15039 0.24375,-0.0787 0.47336,-0.19563 0.69336,-0.32813 0.10625,-0.0675 0.21391,-0.145 0.31641,-0.21875 0.0537,-0.0438 0.10234,-0.0834 0.15234,-0.11719 0.0387,-0.04 0.10243,-0.0924 0.10743,-0.10742 l -0.0234,0.0332 0.0859,-0.082 0.11718,-0.11328 0.12891,-0.13476 c 0.0875,-0.0987 0.17016,-0.19719 0.25391,-0.30469 0.15624,-0.21 0.30242,-0.42555 0.41992,-0.6543 0.23375,-0.45375 0.35992,-0.93664 0.38867,-1.40039 l 0.0117,-0.0879 -0.006,-0.14648 v -0.0137 l -0.006,-0.01 c 0.005,-0.025 0.005,-0.0453 0,-0.0703 -0.01,-0.0925 -0.0227,-0.1836 -0.0527,-0.27735 -0.0487,-0.175 -0.13726,-0.3664 -0.25976,-0.5664 -0.24375,-0.385 -0.60367,-0.7925 -1.01367,-1.1875 -0.82125,-0.78125 -1.7886,-1.52891 -2.7461,-2.28516 l -1.46484,-1.13672 -0.73047,-0.58203 -0.46484,-0.37109 -0.12696,-0.10742 c -0.0875,-0.0725 -0.17164,-0.15602 -0.24414,-0.22852 -0.3225,-0.3325 -0.60617,-0.7275 -0.82617,-1.15625 -0.21375,-0.425 -0.36172,-0.89 -0.44922,-1.34375 -0.16625,-0.91375 -0.0807,-1.77156 0.0606,-2.53906 0.3125,-1.5475 0.89281,-2.84102 1.50781,-4.07227 0.3075,-0.6 0.62969,-1.17617 0.96094,-1.73242 0.005,-0.005 0.005,-0.0163 0.01,-0.0312 l 0.01,-0.008 c -0.005,0 0,-0.006 0,-0.006 0,0 -5.40461,2.56195 -7.47461,2.8457 0,0.005 -0.004,0 -0.004,0 -0.16125,0.0388 -0.32313,0.0774 -0.48438,0.10742 -0.98625,0.195 -2.02695,0.23453 -3.0332,0.11328 -0.24875,-0.03 -0.49735,-0.0743 -0.7461,-0.12304 l -0.36523,-0.0762 -0.34766,-0.0938 c -0.405,-0.10749 -0.78101,-0.20523 -1.16601,-0.30273 -0.77625,-0.185 -1.54899,-0.3375 -2.27149,-0.40625 -0.36625,-0.0337 -0.70765,-0.0622 -1.03515,-0.0234 -0.3225,0.025 -0.62,0.0588 -0.9375,0.15625 -0.3175,0.0987 -0.67485,0.24907 -1.08985,0.41407 -0.21,0.0787 -0.42859,0.16562 -0.65234,0.23437 l -0.11719,0.0391 -0.0977,0.0391 c -0.0687,0.03 -0.13351,0.0596 -0.19726,0.0996 -0.53125,0.2625 -1.01461,0.7211 -1.38086,1.27735 -0.0875,0.14625 -0.17664,0.2939 -0.24414,0.44141 l -0.0527,0.0977 c -0.02,0.0387 -0.0112,0.009 -0.0312,0.0586 -0.0238,0.0625 -0.0477,0.15102 -0.0664,0.22852 -0.0888,0.3175 -0.14336,0.6625 -0.16211,1 -0.035,0.67375 0.10328,1.29438 0.42578,1.79688 0.31625,0.51375 0.85383,0.90375 1.51758,1.1875 0.67375,0.2875 1.38281,0.44875 2.00781,0.375 0.635,-0.0675 1.16477,-0.38071 1.54102,-0.90821 0.7375,-1.04 0.76703,-2.7582 -0.043,-3.87695 h -0.006 c -0.18,-0.18 -0.15555,-0.49656 0.0644,-0.72656 0.215,-0.21 0.5318,-0.23961 0.7168,-0.0684 l 0.006,0.004 c 0.015,0.01 0.0253,0.031 0.0391,0.041 0.65,0.7275 1.00992,1.63953 1.10742,2.58203 0.0875,0.9625 -0.0723,1.97149 -0.60351,2.86523 -0.26875,0.445 -0.63094,0.85485 -1.08594,1.15235 -0.44375,0.3075 -0.95016,0.51297 -1.47266,0.60547 -1.045,0.18125 -2.04789,-0.0137 -2.93164,-0.32617 -0.90375,-0.3075 -1.84453,-0.87516 -2.48828,-1.75391 -0.3225,-0.43375 -0.5675,-0.93219 -0.71875,-1.42969 -0.1475,-0.5175 -0.21375,-1.02922 -0.21875,-1.54297 -0.01,-0.5025 0.0381,-0.99164 0.14063,-1.49414 0.02,-0.1225 0.0591,-0.24445 0.0879,-0.37695 0.015,-0.0588 0.064,-0.18453 0.084,-0.23828 l 0.0723,-0.18555 c 0.1025,-0.24375 0.21429,-0.46961 0.34179,-0.69336 0.4875,-0.87 1.20118,-1.68398 2.13868,-2.24023 0.1175,-0.0737 0.23992,-0.13867 0.35742,-0.20117 l 0.19336,-0.0937 0.17773,-0.0781 c 0.17125,-0.0737 0.33633,-0.14062 0.51758,-0.23437 0.35125,-0.175 0.7498,-0.39008 1.22851,-0.58008 0.46876,-0.19125 1.00227,-0.3275 1.50977,-0.40625 0.5125,-0.0725 1.00649,-0.0977 1.49023,-0.0977 0.95125,0.02 1.84977,0.12852 2.72852,0.25977 0.43,0.0637 0.87406,0.14476 1.28906,0.22851 l 0.15235,0.0215 0.11523,0.0137 0.25977,0.0391 c 0.16625,0.015 0.33179,0.0291 0.49804,0.0391 1.00125,0.0288 1.98328,-0.17703 2.92579,-0.58203 0,0 0.01,2.4e-4 0.01,-0.01 0.004,-0.005 0.0126,2.3e-4 0.0176,-0.01 0.3125,-0.13125 0.61031,-0.28273 0.91406,-0.45898 0.6,-0.34625 1.17649,-0.77993 1.70899,-1.26368 l 0.0156,-0.01 c 0.58,-0.465 1.08805,-0.96656 1.3418,-1.44531 0.41,-0.75625 0.47383,-1.04086 0.0488,-1.09961 -0.35125,-0.0387 -1.03969,0.0797 -2.14844,0.21094 -0.0925,0.01 -0.18938,0.0241 -0.29688,0.0391 h -0.006 c -0.90375,0.1025 -1.79289,0.21023 -2.68164,0.30273 -0.96625,0.0825 -1.90812,0.22399 -2.95312,0.30274 -0.5225,0.0238 -1.07414,0.009 -1.65039,-0.10352 -0.56625,-0.1175 -1.15805,-0.34445 -1.68555,-0.7207 -0.5175,-0.37125 -0.9575,-0.85617 -1.25,-1.38867 -0.14625,-0.25875 -0.26773,-0.53008 -0.36523,-0.79883 -0.1025,-0.29375 -0.14719,-0.46992 -0.21094,-0.66992 -0.22,-0.82125 -0.52149,-1.6018 -0.83399,-2.37305 -0.3225,-0.75625 -0.64414,-1.50852 -1.02539,-2.19727 -0.37125,-0.67875 -0.78554,-1.30398 -1.27929,-1.70898 -0.46875,-0.405 -1.1186,-0.66891 -1.77735,-0.72266 -0.665,-0.0588 -1.39226,0.0812 -2.04101,0.375 -0.0787,0.0337 -0.165,0.0794 -0.21875,0.10938 -0.0588,0.0238 -0.12781,0.0723 -0.19531,0.12109 -0.1375,0.0937 -0.26985,0.20492 -0.40235,0.32617 -0.25375,0.235 -0.46781,0.50414 -0.63281,0.80664 -0.3425,0.585 -0.46922,1.27453 -0.38672,1.98829 0.0337,0.36125 0.12766,0.71187 0.25391,1.07812 l 0.0527,0.12695 v 0.0352 c 0.005,0.0137 0.0156,0.0176 0.0156,0.0176 l 0.0234,0.0644 c 0.03,0.0637 0.0407,0.0784 0.0645,0.11719 0.01,0.0237 0.0301,0.0639 0.0488,0.0976 0.0838,0.13625 0.17571,0.27313 0.28321,0.39063 0.43,0.46875 1.1039,0.70859 1.8164,0.68359 0.7075,-0.005 1.44024,-0.25968 2.02149,-0.67968 0.58125,-0.42875 0.97679,-1.05258 1.06054,-1.73633 0.005,-0.035 0.0134,-0.0902 0.0234,-0.12891 0.1075,-0.2875 0.42414,-0.42867 0.71289,-0.32617 0.2875,0.10625 0.4443,0.41 0.3418,0.6875 -0.0538,0.46375 -0.20961,0.91859 -0.44336,1.30859 -0.255,0.44 -0.59141,0.82125 -0.97266,1.125 -0.77125,0.615 -1.70406,0.97555 -2.69531,1.0293 -0.4975,0.0238 -1.01055,-0.0293 -1.49804,-0.18555 -0.49876,-0.16125 -0.9675,-0.43906 -1.34376,-0.82031 -0.18999,-0.175 -0.36156,-0.39047 -0.50781,-0.60547 -0.0288,-0.0588 -0.0648,-0.11203 -0.10351,-0.17578 -0.0387,-0.0637 -0.0668,-0.13187 -0.0918,-0.17187 l -0.0391,-0.0723 -0.0391,-0.10156 -0.0684,-0.16211 c -0.18125,-0.44 -0.3268,-0.89922 -0.4043,-1.38672 -0.16125,-0.9775 -0.0254,-2.05109 0.44336,-2.96484 0.23,-0.45875 0.52179,-0.87422 0.87304,-1.23047 0.17125,-0.18 0.36251,-0.35461 0.5625,-0.50586 0.10375,-0.0837 0.2093,-0.16149 0.3418,-0.24024 0.1225,-0.0775 0.22969,-0.13156 0.33594,-0.19531 0.88,-0.43375 1.84758,-0.71211 2.89258,-0.69336 1.05,0.025 2.07851,0.35133 2.94726,0.98633 0.865,0.62875 1.45547,1.436 1.94922,2.19727 0.4975,0.77625 0.90297,1.5614 1.29297,2.34765 0.38625,0.78625 0.74383,1.56867 1.17383,2.32617 0.22375,0.42875 0.35601,0.62969 0.54101,0.80469 0.18125,0.18625 0.35063,0.30789 0.54688,0.40039 0.18,0.1075 0.39578,0.20461 0.64453,0.28711 0.25375,0.0825 0.55766,0.13797 0.87891,0.16797 0.67,0.0587 1.40632,-0.11336 2.08007,-0.47461 0.42,-0.225 0.82008,-0.48961 1.20508,-0.78711 0,0 0.75789,-0.4682 1.43164,-1.43945 -1.3375,-2.49125 -1.5782,-5.3575 -0.68945,-7.8125 -0.615,-0.7425 -1.22008,-1.51938 -1.76758,-2.35938 -0.58125,-0.88875 -1.1207,-1.85562 -1.50195,-2.95312 -0.18625,-0.5525 -0.34328,-1.12914 -0.42578,-1.74414 -0.0775,-0.61 -0.0771,-1.25953 0.0254,-1.89453 0.0575,-0.3125 0.13578,-0.62524 0.23828,-0.92774 0.025,-0.0725 0.0533,-0.15 0.082,-0.21875 l 0.0254,-0.0547 c 0,-0.009 0.006,-0.0291 0.0156,-0.0391 l 0.0391,-0.0762 0.14062,-0.30273 c 0.19125,-0.40626 0.35664,-0.81743 0.49414,-1.23243 0.26876,-0.82 0.42727,-1.67898 0.44727,-2.39648 0.02,-0.36625 -0.009,-0.66867 -0.0723,-0.88867 -0.0288,-0.1125 -0.0785,-0.21946 -0.16601,-0.37696 -0.0788,-0.14625 -0.19867,-0.31601 -0.32617,-0.54101 -0.7125,-0.9325 -1.91922,-1.61711 -3.10547,-1.72461 -1.22125,-0.1125 -2.24594,0.41086 -2.77344,1.56836 -0.0687,0.13125 -0.12789,0.2832 -0.18164,0.43945 -0.0287,0.0737 -0.0535,0.15102 -0.0723,0.22852 l -0.084,0.28906 c -0.0825,0.2775 -0.13586,0.61101 -0.13086,0.88477 0,0.57624 0.20945,1.01515 0.6582,1.34765 0.45,0.33625 1.12414,0.51172 1.80664,0.51172 0.67,0.01 1.37657,-0.15055 1.91407,-0.49805 l 0.01,0.01 c 0.17,-0.1125 0.43875,-0.0726 0.625,0.10742 0.2,0.21 0.22883,0.51797 0.0488,0.69922 -0.005,0.01 -0.0104,0.0126 -0.0254,0.0176 -0.35125,0.3225 -0.75969,0.54359 -1.17969,0.71484 -0.425,0.16125 -0.8657,0.27156 -1.31445,0.32031 -0.89375,0.0987 -1.85516,-3.1e-4 -2.75391,-0.50781 -0.44,-0.25375 -0.85031,-0.63476 -1.13281,-1.10351 -0.28875,-0.46875 -0.43953,-0.9943 -0.48828,-1.49805 -0.0488,-0.5075 -0.01,-0.97133 0.0742,-1.45508 l 0.0664,-0.30859 c 0.02,-0.1075 0.0501,-0.21953 0.0801,-0.33203 0.0637,-0.21875 0.13016,-0.45297 0.22266,-0.66797 0.3375,-0.88375 0.97758,-1.76211 1.86133,-2.31836 0.88375,-0.56125 1.93,-0.77203 2.90625,-0.73828 0.98125,0.0438 1.90695,0.31218 2.75195,0.74218 0.85,0.42875 1.62219,1.01977 2.24219,1.79102 l 0.006,0.0156 0.0684,0.082 c 0.1025,0.1525 0.23828,0.32851 0.39453,0.57226 0.16125,0.235 0.32797,0.53602 0.44922,0.85352 0.245,0.65 0.29734,1.28164 0.27734,1.83789 -0.0437,1.10875 -0.2875,2.05812 -0.46875,3.01562 -0.0925,0.46875 -0.18383,0.94422 -0.26758,1.41797 l -0.0547,0.35547 -0.0137,0.082 -0.004,0.0488 v 0.0312 c -0.015,0.0337 -0.0115,0.0674 -0.0215,0.10742 -0.015,0.13625 -0.009,0.28133 -0.004,0.42383 0.0538,0.56125 0.27414,1.13773 0.65039,1.70898 0.385,0.57625 0.89726,1.1368 1.47851,1.6543 0.46375,0.4 0.95711,0.79219 1.47461,1.14844 3.39875,-2.25125 8.17406,-1.81172 11.60156,1.17578 0.58125,-0.375 1.14243,-0.86266 1.66993,-1.47266 0.01,-0.01 0.01,-0.0162 0.0195,-0.0312 0.0288,-0.0288 0.0485,-0.058 0.0723,-0.0918 0.3525,-0.435 0.67063,-0.88977 0.95313,-1.35352 0.27875,-0.45875 0.53297,-0.9325 0.69922,-1.40625 0.15625,-0.47875 0.22797,-0.96086 0.19922,-1.38086 -0.035,-0.42875 -0.15133,-0.80117 -0.36133,-1.13867 -0.0975,-0.16125 -0.22008,-0.32141 -0.36133,-0.47266 l -0.3125,-0.3164 -0.3125,-0.3125 c -0.415,-0.41625 -0.85508,-0.81102 -1.29883,-1.19727 -0.88875,-0.78125 -1.83078,-1.47898 -2.83203,-2.24023 -0.5025,-0.39125 -1.02547,-0.79766 -1.54297,-1.37891 -0.25875,-0.2925 -0.49773,-0.63969 -0.67773,-1.05469 -0.0937,-0.195 -0.16133,-0.41 -0.20508,-0.625 -0.01,-0.0487 -0.0263,-0.1025 -0.0312,-0.15625 l -0.0234,-0.13086 -0.0195,-0.16015 -0.0195,-0.13867 c -0.0625,-0.77125 0.0436,-1.53758 0.27734,-2.23633 0.1175,-0.34625 0.26039,-0.66774 0.43164,-0.99024 0.0825,-0.16125 0.17094,-0.3125 0.27344,-0.46875 0.0488,-0.0725 0.0977,-0.15125 0.16016,-0.21875 0.045,-0.0787 0.0936,-0.13343 0.15234,-0.21093 l 0.008,-0.0156 c 0,0 0.005,0.006 0,-0.004 0.01,-0.01 0.0165,-0.0147 0.0215,-0.0234 0.02,-0.03 0.0377,-0.0446 0.0527,-0.0684 l 0.0918,-0.11914 c 0.0637,-0.0738 0.12892,-0.13633 0.1914,-0.20508 0.1325,-0.13125 0.26375,-0.25727 0.40626,-0.38477 0.2775,-0.23875 0.5846,-0.44476 0.9121,-0.63476 0.65,-0.36125 1.41563,-0.5818 2.17188,-0.5918 z m 14.5957,56.91992 h -0.0449 l 0.0547,0.01 c -0.005,-0.01 -0.005,-0.01 -0.01,-0.01 z m 23.46289,-53.20703 c 0.34125,0.4975 0.66883,1.00399 0.98633,1.52149 l -5.3125,3.27734 c -0.27875,-0.45 -0.56258,-0.89422 -0.86133,-1.32422 z m -83.98047,0.0625 5.18555,3.47266 c -0.29375,0.43875 -0.57672,0.87742 -0.85547,1.32617 l -5.30664,-3.28516 c 0.3175,-0.5075 0.64031,-1.01492 0.97656,-1.51367 z m 87.55274,6.19531 c 0.25875,0.5525 0.50305,1.09524 0.74805,1.64649 l -5.7168,2.49414 c -0.21,-0.48375 -0.43016,-0.96461 -0.66016,-1.44336 z m -91.1211,0.0684 5.63477,2.69141 c -0.23,0.4725 -0.45016,0.9518 -0.66016,1.43555 l -5.71679,-2.48438 c 0.23375,-0.5525 0.48343,-1.10008 0.74218,-1.64258 z m 93.75977,6.64258 c 0.175,0.57625 0.35047,1.15508 0.51172,1.73633 l -6.02539,1.64258 c -0.14125,-0.50375 -0.2832,-1.01227 -0.43945,-1.50977 z m -96.39258,0.0664 5.95703,1.85742 c -0.15125,0.4925 -0.29695,1.00031 -0.43945,1.50781 l -6.01953,-1.64062 c 0.15625,-0.57625 0.32695,-1.15336 0.50195,-1.72461 z m 98.05274,6.93945 c 0.0925,0.59625 0.17906,1.19172 0.25781,1.79297 l -6.19141,0.78125 c -0.0687,-0.5225 -0.14101,-1.04 -0.22851,-1.5625 z m -99.69727,0.0684 6.16211,0.98633 c -0.0787,0.5175 -0.15695,1.03914 -0.2207,1.55664 l -6.19531,-0.75977 c 0.0775,-0.59625 0.1614,-1.1932 0.2539,-1.7832 z m -13.11523,4.31641 c 2.07475,0 3.75,1.675 3.75,3.75 0,2.065 -1.685,3.75 -3.75,3.75 h -0.0117 c -2.06488,-0.01 -3.73828,-1.68477 -3.73828,-3.75977 0,-2.065 1.67487,-3.74023 3.75,-3.74023 z m 126.03906,0.0391 c 2.075,-0.015 3.75,1.67437 3.75,3.73437 v 0.0156 c 0,2.06625 -1.675,3.735 -3.75,3.75 -2.06625,0 -3.75,-1.68375 -3.75,-3.75 0,-2.075 1.675,-3.75 3.75,-3.75 z m -12.57813,2.74805 c 0.015,0.60125 0.015,1.20734 0,1.80859 l -6.23437,-0.10352 c 0.01,-0.5225 0.01,-1.04976 0,-1.57226 z m -100.9707,0.0547 6.23438,0.11719 c -0.01,0.5325 -0.01,1.05453 0,1.58203 l -6.23438,0.11328 c -0.015,-0.60625 -0.015,-1.20625 0,-1.8125 z m 94.4082,6.37696 6.19141,0.76172 c -0.0675,0.59624 -0.15164,1.18648 -0.24414,1.77148 l -6.16797,-0.9668 c 0.0888,-0.5175 0.15695,-1.0389 0.2207,-1.5664 z m -87.83593,0.043 c 0.0625,0.52251 0.14015,1.045 0.22265,1.5625 l -6.16015,0.9961 c -0.0975,-0.59625 -0.18141,-1.18586 -0.25391,-1.78711 z m 86.625,6.14844 6.02539,1.63672 c -0.15625,0.57625 -0.32266,1.14641 -0.50391,1.72266 L 220.68945,214.5 c 0.15125,-0.5075 0.29735,-1.01594 0.4336,-1.52344 z m -85.40625,0.0527 c 0.14625,0.5025 0.28906,1.01617 0.44531,1.51367 l -5.95703,1.85547 c -0.18,-0.57625 -0.34656,-1.15117 -0.50781,-1.73242 z m 83.32617,5.90429 5.72265,2.47461 c -0.22874,0.5525 -0.48343,1.09899 -0.74218,1.64649 l -5.62891,-2.69141 c 0.225,-0.47375 0.43844,-0.95094 0.64844,-1.42969 z m -81.23047,0.0547 c 0.205,0.4825 0.42555,0.95961 0.6543,1.44336 l -5.63477,2.67774 c -0.26375,-0.5425 -0.50734,-1.09024 -0.74609,-1.64649 z m 78.31445,5.53516 5.3086,3.27734 c -0.3125,0.51375 -0.63516,1.01617 -0.97266,1.51367 l -5.18359,-3.46289 c 0.2925,-0.44 0.57515,-0.87812 0.84765,-1.32812 z m -75.40039,0.0644 c 0.27875,0.45 0.56172,0.88898 0.85547,1.33399 l -5.19141,3.46093 c -0.33625,-0.4975 -0.65906,-1.01054 -0.97656,-1.52929 z m 3.69141,5.12305 c 0.3375,0.405 0.6839,0.7982 1.03515,1.18945 l -4.64257,4.17578 c -0.395,-0.45 -0.79149,-0.90453 -1.17774,-1.36328 z m 67.95117,0.0273 4.88281,3.89258 -0.0488,0.0586 c -0.405,0.48375 -0.77242,0.90336 -1.13867,1.31836 l -4.6582,-4.15625 c 0.3275,-0.36625 0.65039,-0.73203 0.96289,-1.11328 z m -4.30273,4.46875 4.18554,4.63281 c -0.445,0.40625 -0.90367,0.79735 -1.35742,1.1836 l -4.01367,-4.77539 c 0.4,-0.3425 0.79555,-0.68352 1.18555,-1.04102 z m -59.26758,0.0449 c 0.395,0.35125 0.79617,0.69657 1.20117,1.03907 l 0.13672,0.11132 -4.02734,4.76172 -0.0801,-0.0586 c -0.4975,-0.42 -0.94688,-0.80578 -1.39063,-1.20703 z m 54.29687,3.8418 3.47657,5.17969 c -0.5075,0.3375 -1.0168,0.66992 -1.5293,0.98242 l -3.28125,-5.30859 c 0.45,-0.2725 0.89398,-0.56102 1.33398,-0.85352 z m -49.18945,0.11719 c 0.44375,0.2975 0.88414,0.58086 1.33789,0.84961 l -3.27148,5.32226 c -0.5025,-0.3175 -1.00993,-0.63945 -1.51368,-0.9707 z m 43.70117,3.01367 2.69531,5.62891 c -0.5375,0.25875 -1.08937,0.50734 -1.64062,0.74609 l -2.49023,-5.72266 c 0.47749,-0.21 0.96679,-0.42359 1.43554,-0.65234 z m -38.20703,0.10156 c 0.4775,0.22375 0.95656,0.43844 1.44531,0.64844 l -2.48242,5.72851 c -0.54625,-0.23374 -1.09351,-0.48328 -1.63476,-0.73828 z m -25.58984,0.82227 c 0.95937,0.004 1.92039,0.37492 2.65039,1.10742 0.025,0.0237 0.0525,0.0325 0.0625,0.0625 0.0238,0.0187 0.0395,0.0348 0.0644,0.0586 1.46,1.465 1.47281,3.82774 0.008,5.30274 -0.73625,0.73625 -1.69765,1.09765 -2.66015,1.09765 -0.94625,0 -1.91485,-0.36039 -2.65235,-1.08789 -0.009,-0.0238 -0.0232,-0.0388 -0.0332,-0.0488 -0.0387,-0.0238 -0.0628,-0.0629 -0.10156,-0.0879 h 0.0137 c -1.475,-1.475 -1.465,-3.8475 0,-5.3125 0.73,-0.7325 1.68906,-1.09554 2.64844,-1.09179 z m 89.26562,0.0273 c 0.95875,-0.001 1.91649,0.36664 2.64649,1.10352 1.465,1.46 1.48062,3.83882 0.0156,5.29882 -0.7375,0.73626 -1.70086,1.09766 -2.66211,1.09766 -0.9525,0 -1.91422,-0.3614 -2.63672,-1.09766 -1.475,-1.46 -1.47367,-3.83882 -0.0137,-5.29882 0.7325,-0.7325 1.69164,-1.10243 2.65039,-1.10352 z m -31.34179,1.36133 1.86914,5.95703 c -0.57625,0.18 -1.15313,0.34656 -1.73438,0.50781 l -1.6543,-6.01367 c 0.5075,-0.1425 1.01079,-0.29492 1.51954,-0.45117 z m -26.45118,0.0801 c 0.4975,0.15625 1.00102,0.29734 1.50977,0.43359 l -1.62109,6.02539 c -0.58126,-0.15625 -1.15813,-0.3218 -1.73438,-0.49805 z m 20.30274,1.38086 1.00586,6.15625 c -0.59,0.0975 -1.18625,0.18601 -1.78125,0.25976 l -0.79688,-6.1875 c 0.5275,-0.0687 1.04977,-0.13976 1.57227,-0.22851 z m -14.16016,0.0391 c 0.5225,0.0875 1.04,0.16 1.5625,0.21875 l -0.75781,6.19726 c -0.59125,-0.0725 -1.19109,-0.1564 -1.77735,-0.2539 z m 7.86719,0.53711 0.13086,6.23633 c -0.6,0.0137 -1.20078,0.0178 -1.80078,0.008 l 0.0918,-6.24024 c 0.5225,0.01 1.05563,0.0111 1.57813,-0.004 z m -0.76758,15.07812 c 2.075,-0.0146 3.74977,1.66108 3.75977,3.73633 0,2.07463 -1.685,3.74905 -3.75,3.76367 -2.075,0 -3.74977,-1.67487 -3.75977,-3.75 0,-2.07475 1.675,-3.75 3.75,-3.75 z"
               style="fill:#000000;fill-opacity:1;fill-rule:nonzero;stroke:none;stroke-width:1.22281444"
               inkscape:connector-curvature="0" />
            <path
               inkscape:connector-curvature="0"
               id="path58"
               style="fill:#000000;fill-opacity:1;fill-rule:nonzero;stroke:none;stroke-width:1.22281444"
               d="m 2273.59,1113.57 149.34,-258.59 h -298.67 z m 0,62.66 -203.63,-352.582 h 407.23 l -203.6,352.582" />
            <path
               inkscape:connector-curvature="0"
               id="path60"
               style="fill:#000000;fill-opacity:1;fill-rule:nonzero;stroke:none;stroke-width:1.22281444"
               d="M 580.469,1113.57 729.801,854.98 H 431.129 Z m 0,62.66 -203.59,-352.582 h 407.18 l -203.59,352.582" />
            <path
               inkscape:connector-curvature="0"
               id="path62"
               style="fill:#000000;fill-opacity:1;fill-rule:nonzero;stroke:none;stroke-width:1.22281444"
               d="m 1427.81,2584.2 149.34,-258.6 h -298.67 z m 0,62.65 -203.59,-352.57 h 407.23 l -203.64,352.57" />
          </g>
        </g>
        <g
           style="fill:#ccff00;fill-opacity:0;stroke-width:1.22281444"
           id="g64">
          <g
             style="fill:#ccff00;fill-opacity:0;stroke-width:1.22281444"
             clip-path="url(#clipPath68)"
             id="g66">
            <path
               inkscape:connector-curvature="0"
               id="path72"
               style="fill:#000000;fill-opacity:1;fill-rule:nonzero;stroke:none;stroke-width:1.22281444"
               d="m 2716.25,354.59 c -5.94,0 -11.52,-1.102 -16.72,-3.281 -5.12,-2.11 -9.8,-5.321 -14.06,-9.688 -4.3,-4.301 -7.5,-9.019 -9.69,-14.223 -2.19,-5.226 -3.28,-10.777 -3.28,-16.718 0,-5.86 1.09,-11.371 3.28,-16.559 2.19,-5.242 5.39,-9.961 9.69,-14.223 4.26,-4.296 8.94,-7.5 14.06,-9.687 5.2,-2.109 10.78,-3.121 16.72,-3.121 6.02,0 11.6,1.012 16.72,3.121 5.19,2.187 9.92,5.391 14.22,9.687 4.26,4.262 7.42,8.954 9.53,14.063 2.19,5.199 3.28,10.777 3.28,16.719 0,6.019 -1.09,11.64 -3.28,16.879 -2.19,5.191 -5.39,9.882 -9.53,14.062 -4.3,4.367 -9.03,7.578 -14.22,9.688 -5.12,2.179 -10.7,3.281 -16.72,3.281 z m 0,7.031 c 6.95,0 13.44,-1.25 19.37,-3.75 6.02,-2.5 11.49,-6.25 16.41,-11.25 5,-5 8.67,-10.473 11.09,-16.41 2.5,-5.941 3.76,-12.461 3.76,-19.531 0,-6.871 -1.26,-13.282 -3.76,-19.219 -2.42,-5.941 -6.09,-11.402 -11.09,-16.402 -4.92,-5 -10.39,-8.75 -16.41,-11.25 -5.93,-2.5 -12.42,-3.75 -19.37,-3.75 -6.87,0 -13.36,1.25 -19.37,3.75 -6.06,2.5 -11.53,6.25 -16.41,11.25 -5,5 -8.75,10.461 -11.25,16.402 -2.42,5.937 -3.6,12.348 -3.6,19.219 0,7.07 1.18,13.59 3.6,19.531 2.5,5.937 6.25,11.41 11.25,16.41 4.88,5 10.35,8.75 16.41,11.25 6.01,2.5 12.5,3.75 19.37,3.75 z m -1.87,-28.281 h -8.44 v -18.91 h 8.44 c 5,0 8.47,0.672 10.46,2.031 1.96,1.449 2.97,3.91 2.97,7.348 0,3.429 -1.01,5.863 -2.97,7.339 -1.99,1.454 -5.46,2.192 -10.46,2.192 z m 0.46,7.031 c 8.01,0 13.99,-1.371 17.97,-4.062 3.95,-2.739 5.94,-6.84 5.94,-12.348 0,-3.981 -1.21,-7.262 -3.59,-9.84 -2.43,-2.5 -5.78,-4.141 -10.16,-4.851 1.13,-0.418 2.42,-1.52 3.91,-3.282 1.56,-1.789 3.36,-4.328 5.47,-7.648 l 9.37,-15.16 h -11.72 l -8.75,14.218 c -2.73,4.372 -4.92,7.114 -6.56,8.282 -1.68,1.25 -3.75,1.879 -6.25,1.879 h -4.53 V 283.18 h -10.47 v 57.191 z" />
          </g>
        </g>
      </g>
    </g>
  </g>
</svg>
